<?xml version="1.0" encoding="UTF-8" standalone="no"?>
<svg
   width="1945"
   height="1685"
   version="1.1"
   id="svg1"
   sodipodi:docname="new-slice.svg"
   inkscape:version="1.3.2 (091e20e, 2023-11-25)"
   xmlns:inkscape="http://www.inkscape.org/namespaces/inkscape"
   xmlns:sodipodi="http://sodipodi.sourceforge.net/DTD/sodipodi-0.dtd"
   xmlns="http://www.w3.org/2000/svg"
   xmlns:svg="http://www.w3.org/2000/svg">
  <defs
     id="defs1" />
  <sodipodi:namedview
     id="namedview1"
     pagecolor="#ffffff"
     bordercolor="#000000"
     borderopacity="0.25"
     inkscape:showpageshadow="2"
     inkscape:pageopacity="0.0"
     inkscape:pagecheckerboard="0"
     inkscape:deskcolor="#d1d1d1"
     inkscape:zoom="0.15321337"
     inkscape:cx="972.5"
     inkscape:cy="845.22651"
     inkscape:window-width="1392"
     inkscape:window-height="1212"
     inkscape:window-x="337"
     inkscape:window-y="58"
     inkscape:window-maximized="0"
     inkscape:current-layer="svg1" />
  <g
     id="g1">
    <title
       id="title1">Layer 1</title>
    <path
       id="svg_2"
       d="m 50,0 h 200.00635 c 27.7,0 50,22.3 50,50 v 1585.0397 c 0,27.7 -22.3,50 -50,50 H 50 c -27.7,0 -50,-22.3 -50,-50 V 50 C 0,22.3 22.3,0 50,0 Z m 1421.0205,584.0393 293,-293 -107,-107 -293,293 z m 447,-293 q 0,27 -18,45 l -1286.00001,1286 q -18,18 -45,18 -27,0 -45,-18 l -198,-198 q -18,-18 -18,-45 0,-27 18,-45 l 1286.00001,-1286 q 18,-18 45,-18 27,0 45,18 l 198,198 q 18,18 18,45 m -1351.00001,-190 98,30 -98,30 -30,98 -30,-98 -98,-30 98,-30 30,-98 z m 350,162 196.00001,60 -196.00001,60 -60,196 -60,-196 -196,-60 196,-60 60,-196 z m 930.00001,478 98,30 -98,30 -30,98 -30,-98 -98,-30 98,-30 30,-98 z m -640,-640 98,30 -98,30 -30,98 -30,-98 -98,-30 98,-30 30,-98 z" />
  </g>
</svg>
