<?xml version="1.0" encoding="UTF-8" standalone="no"?>
<svg
   width="1637.0000000000002"
   height="1637.0000000000002"
   version="1.1"
   id="svg1"
   sodipodi:docname="fill-3d.svg"
   inkscape:export-filename="fill-2d.png"
   inkscape:export-xdpi="96"
   inkscape:export-ydpi="96"
   xml:space="preserve"
   inkscape:version="1.3.2 (091e20e, 2023-11-25)"
   xmlns:inkscape="http://www.inkscape.org/namespaces/inkscape"
   xmlns:sodipodi="http://sodipodi.sourceforge.net/DTD/sodipodi-0.dtd"
   xmlns="http://www.w3.org/2000/svg"
   xmlns:svg="http://www.w3.org/2000/svg"><defs
     id="defs1" /><sodipodi:namedview
     id="namedview1"
     pagecolor="#ffffff"
     bordercolor="#000000"
     borderopacity="0.25"
     inkscape:showpageshadow="2"
     inkscape:pageopacity="0.0"
     inkscape:pagecheckerboard="0"
     inkscape:deskcolor="#d1d1d1"
     inkscape:zoom="0.23685484"
     inkscape:cx="713.51719"
     inkscape:cy="120.32686"
     inkscape:window-width="1392"
     inkscape:window-height="1212"
     inkscape:window-x="288"
     inkscape:window-y="25"
     inkscape:window-maximized="0"
     inkscape:current-layer="g1" /><g
     id="g1"
     transform="translate(-16.479866,-49.439597)"><title
       id="title1">Layer 1</title><path
       id="path1-6"
       style="fill:#000000"
       d="m 1356.6221,628.55933 c -32.6003,-1.49262 -73.3934,-6.81379 -103.0726,-13.44509 -11.3269,-2.5308 -38.7928,-10.14035 -44.6814,-12.3792 l -2.746,-1.04403 v -48.65914 -48.6591 l 6.75,0.5061 c 5.3562,0.4016 9.6944,1.7711 21.0094,6.6325 44.9034,19.2925 96.9649,31.148 136.6643,31.1214 37.7471,-0.025 63.1999,-4.263 82.4506,-13.727 8.4323,-4.1455 23.0248,-17.1859 26.2033,-23.4163 3.5735,-7.0047 5.1594,-16.4753 4.6633,-27.848 -0.7398,-16.9556 -5.0093,-25.036 -17.679,-33.4588 -17.643,-11.7291 -31.9836,-13.9377 -98.3119,-15.1414 l -38.75,-0.7033 v -38.2412 c 0,-33.9486 0.1776,-38.3094 1.5818,-38.8483 0.87,-0.3338 10.2075,-0.6132 20.75,-0.6208 21.7524,-0.016 55.0256,-1.5104 67.6682,-3.0397 21.7371,-2.6295 36.6265,-8.413 46.1327,-17.9191 4.7093,-4.7094 6.0407,-6.8488 7.7936,-12.524 2.975,-9.6321 3.0142,-23.4464 0.086,-30.2537 -5.4572,-12.6855 -22.7567,-22.6383 -46.5121,-26.7593 -15.3879,-2.6695 -46.4086,-3.9737 -63.3649,-2.664 -35.5687,2.7472 -76.4726,13.216 -112.2745,28.735 -12.9034,5.5932 -16.5204,6.7418 -22.6106,7.18 l -7.25,0.5217 v -47.9963 -47.9963 l 17.25,-4.6117 c 30.8554,-8.249 59.4886,-13.8007 93.75,-18.1773 52.0592,-6.65 115.0395,-5.2824 160.1189,3.4768 65.0974,12.6488 103.8451,39.883 114.0263,80.1442 1.8586,7.3495 2.0369,10.2307 1.5687,25.3449 -0.5686,18.3553 -1.143,21.1193 -7.0416,33.8861 -4.9467,10.7066 -9.9708,17.9242 -19.1659,27.5341 -15.4913,16.19 -35.6452,28.315 -56.0064,33.6945 -15.1257,3.9963 -14.9766,3.9365 -15.3017,6.1302 -0.2517,1.6977 0.4123,2.1477 4,2.7112 42.7789,6.7188 75.9801,23.8655 93.4392,48.2563 10.4994,14.6678 14.4371,28.4296 14.427,50.4199 -0.02,42.6341 -18.9396,76.7171 -56.5127,101.804 -47.7708,31.89568 -113.1881,44.42333 -209.0518,40.03416 z m 12.6337,1000.02147 c -23.1391,-2.303 -32.852,-4.8715 -50.7295,-13.4148 -41.5046,-19.8343 -76.5813,-60.8913 -87.7833,-102.7496 -3.0295,-11.3204 -4.9239,-30.678 -4.1194,-42.0935 0.8903,-12.6309 4.8795,-23.512 18.0234,-49.1613 34.5066,-67.3366 110.71,-184.0353 136.084,-208.4008 7.684,-7.3786 13.0966,-10.0474 20.437,-10.0772 13.2483,-0.054 21.4304,9.7632 74.5818,89.484 56.7248,85.0805 77.4334,120.1568 85.9138,145.5206 5.0455,15.0905 5.8887,22.2681 5.3383,45.4419 -0.5504,23.1778 -2.2302,31.4357 -10.2687,50.4797 -13.4104,31.7711 -41.1833,60.9935 -72.9774,76.7864 -15.8502,7.8732 -37.4823,15.1 -51.6205,17.2453 -9.9083,1.5034 -51.0388,2.1179 -62.8795,0.9393 z m -641.49999,-7.2974 c -12.7242,-4.1603 -16.83103,-6.9881 -35.29654,-24.3031 -9.7369,-9.1303 -141.22846,-140.1807 -292.20345,-291.2231 -228.35285,-228.4547 -275.13473,-275.713 -278.27559,-281.109 -8.44258,-14.5046 -11.53936,-32.77036 -8.31113,-49.02171 2.50225,-12.59673 6.87267,-20.97255 16.15715,-30.96486 18.88312,-20.32276 140.51594,-142.71024 343.8651,-345.99861 L 692.2553,380.16439 579.51264,267.41849 466.76999,154.67249 481.7629,139.59839 c 8.24611,-8.2908 20.76193,-20.524 27.81295,-27.1849 l 12.82003,-12.1109 396.01872,395.9295 c 217.8103,217.76126 409.0045,409.31428 424.876,425.67341 30.9163,31.8662 32.6129,34.11493 36.4093,48.25613 4.0164,14.96051 2.5984,34.89947 -3.3359,46.90917 -6.3073,12.7644 -9.1476,15.6621 -342.0393,348.9531 l -244.56888,244.8624 -10.15722,4.9205 c -12.31795,5.9672 -20.52189,7.8288 -34.34278,7.7927 -8.18154,-0.021 -12.04564,-0.5327 -17.50001,-2.3161 z M 1202.5027,891.46017 C 1058.4027,748.2559 943.41006,633.80689 842.22629,532.88689 L 746.69677,437.60649 499.72629,680.27543 C 363.89253,813.74336 240.04136,935.48077 224.50146,950.80301 l -28.25435,27.85862 h 547.00128 547.00131 z" /></g></svg>
