<?xml version="1.0" encoding="UTF-8" standalone="no"?>
<svg
   width="1637.0000000000002"
   height="1637.0000000000002"
   version="1.1"
   id="svg1"
   sodipodi:docname="fill-2d.svg"
   inkscape:export-filename="fill-2d.png"
   inkscape:export-xdpi="96"
   inkscape:export-ydpi="96"
   xml:space="preserve"
   inkscape:version="1.3.2 (091e20e, 2023-11-25)"
   xmlns:inkscape="http://www.inkscape.org/namespaces/inkscape"
   xmlns:sodipodi="http://sodipodi.sourceforge.net/DTD/sodipodi-0.dtd"
   xmlns="http://www.w3.org/2000/svg"
   xmlns:svg="http://www.w3.org/2000/svg"><defs
     id="defs1" /><sodipodi:namedview
     id="namedview1"
     pagecolor="#ffffff"
     bordercolor="#000000"
     borderopacity="0.25"
     inkscape:showpageshadow="2"
     inkscape:pageopacity="0.0"
     inkscape:pagecheckerboard="0"
     inkscape:deskcolor="#d1d1d1"
     inkscape:zoom="0.28030014"
     inkscape:cx="1052.4433"
     inkscape:cy="529.78925"
     inkscape:window-width="1392"
     inkscape:window-height="1212"
     inkscape:window-x="570"
     inkscape:window-y="25"
     inkscape:window-maximized="0"
     inkscape:current-layer="g1" /><g
     id="g1"
     transform="translate(-16.479866,-49.439597)"><title
       id="title1">Layer 1</title><path
       style="fill:#000000"
       d="m 1321.9921,1624.866 c -15.4543,-1.6063 -25.7896,-4.1016 -36.8619,-8.8998 -48.3943,-20.972 -84.7793,-62.6709 -97.0057,-111.173 -1.9241,-7.6329 -2.2351,-11.542 -2.2558,-28.3536 -0.023,-18.8152 0.074,-19.7809 2.7753,-27.5 15.432,-44.1017 113.4717,-201.0131 148.5206,-237.7054 8.9921,-9.4138 15.1391,-12.7946 23.2634,-12.7946 13.1336,0 21.2251,9.7332 74.4106,89.5068 67.1225,100.678 85.6584,133.9387 90.5559,162.4932 1.6385,9.5532 1.6419,38.0659 0.01,48.5 -1.585,10.1081 -7.6852,28.8214 -12.5625,38.537 -13.5189,26.9295 -36.4247,51.0381 -63.0677,66.3796 -18.2875,10.5302 -46.7099,19.8824 -65.6002,21.5853 -14.5154,1.3085 -46.9384,1.0084 -62.1779,-0.5755 z m -625.64745,-4.4845 c -8.0209,-0.9383 -14.4149,-3.0593 -23.496,-7.7942 -6.2009,-3.2331 -12.9065,-9.4936 -59,-55.0836 -87.8222,-86.8629 -434.8741,-433.7345 -484.3289,-484.0772 -41.011001,-41.7474 -47.131901,-48.3788 -50.439401,-54.6462 -5.3755,-10.186 -7.7389,-20.36399 -7.7209,-33.25063 0.018,-12.54123 1.7907,-20.89657 6.5223,-30.73409 3.2327,-6.72098 7.4257,-11.20907 66.346101,-71.01513 34.5924,-35.11246 162.8444,-163.74076 285.0044,-285.84075 l 222.1092,-221.99991 -112.7413,-112.7447 -112.7413,-112.7446 14.9929,-15.0741 c 8.2461,-8.2907 20.7619,-20.5239 27.813,-27.1849 l 12.82,-12.110795 396.0187,395.929505 c 217.81025,217.76119 408.99375,409.30315 424.85215,425.64874 31.5768,32.54694 32.9982,34.47585 36.9832,50.19066 4.2454,16.74142 1.5852,39.0235 -6.0119,50.3567 -2.1138,3.1533 -11.8271,14.2833 -21.5851,24.7333 -9.7581,10.45 -140.8518,142.1211 -291.3195,292.6023 l -273.57765,273.6023 -8.5,4.1158 c -13.451,6.5132 -27.2293,8.8494 -42,7.1215 z M 1161.5916,887.23815 C 1017.4915,744.03399 902.49885,629.58499 801.31515,528.665 l -95.5295,-95.2805 -246.9705,242.66899 c -135.8338,133.4679 -259.6849,255.20529 -275.2248,270.52753 l -28.2544,27.85862 h 547.0013 547.00125 z m 3.753,-297.28595 v -36.4874 l 3.75,-2.3186 c 61.8915,-38.2667 109.336,-70.0487 149.75,-100.3139 47.853,-35.8361 78.8859,-67.85741 89.9009,-92.76431 8.3306,-18.8371 9.4517,-39.9838 2.977,-56.1574 -13.1874,-32.9415 -65.2635,-47.2883 -126.8925,-34.9584 -25.2784,5.0574 -56.7366,16.0813 -81.9334,28.7121 -9.1621,4.5928 -13.3386,6.127 -17.7736,6.5292 l -5.7974,0.5257 0.2595,-49.3017 0.2595,-49.3017 14.5679,-4.2327 c 27.2795,-7.926 60.7281,-14.5719 98.4321,-19.5573 15.1602,-2.0046 21.2749,-2.2484 56.5,-2.2528 41.7586,-0.01 52.4669,0.6924 75.5,4.9187 35.2149,6.4614 65.446,18.4001 85.3566,33.7085 8.4123,6.4679 21.3289,19.6498 26.0127,26.5469 12.7609,18.7913 19.1307,40.5821 19.1307,65.4452 0,34.6981 -10.5204,63.3167 -34.8297,94.74741 -10.1212,13.0861 -40.6747,42.9399 -58.4943,57.1546 -26.1293,20.8434 -60.5972,44.7655 -99.9155,69.3454 l -17.5958,11 58.1677,0.6097 c 31.9922,0.3353 85.0551,0.6728 117.9176,0.75 l 59.75,0.1403 v 42 41.99999 h -207.5 -207.5 z"
       id="path1" /></g></svg>
