<?xml version="1.0" encoding="UTF-8" standalone="no"?>
<svg
   width="1637.0000000000002"
   height="1637.0000000000002"
   version="1.1"
   id="svg1"
   sodipodi:docname="intentisty-reset.svg"
   inkscape:export-filename="fill-2d.png"
   inkscape:export-xdpi="96"
   inkscape:export-ydpi="96"
   xml:space="preserve"
   inkscape:version="1.3.2 (091e20e, 2023-11-25)"
   xmlns:inkscape="http://www.inkscape.org/namespaces/inkscape"
   xmlns:sodipodi="http://sodipodi.sourceforge.net/DTD/sodipodi-0.dtd"
   xmlns="http://www.w3.org/2000/svg"
   xmlns:svg="http://www.w3.org/2000/svg"><defs
     id="defs1"><inkscape:path-effect
       effect="bspline"
       id="path-effect4"
       is_visible="true"
       lpeversion="1.3"
       weight="33.333333"
       steps="2"
       helper_size="0"
       apply_no_weight="true"
       apply_with_weight="true"
       only_selected="false"
       uniform="false" /><inkscape:path-effect
       effect="fillet_chamfer"
       id="path-effect3"
       is_visible="true"
       lpeversion="1"
       nodesatellites_param="F,0,0,1,0,0,0,1 @ F,0,0,1,0,0,0,1 @ F,0,0,1,0,157.40711,0,1 @ F,0,0,1,0,114.00446,0,1 @ F,0,0,1,0,0,0,1"
       radius="0"
       unit="px"
       method="auto"
       mode="F"
       chamfer_steps="1"
       flexible="false"
       use_knot_distance="true"
       apply_no_radius="true"
       apply_with_radius="true"
       only_selected="false"
       hide_knots="false" /></defs><sodipodi:namedview
     id="namedview1"
     pagecolor="#ffffff"
     bordercolor="#000000"
     borderopacity="0.25"
     inkscape:showpageshadow="2"
     inkscape:pageopacity="0.0"
     inkscape:pagecheckerboard="0"
     inkscape:deskcolor="#d1d1d1"
     inkscape:zoom="0.28030014"
     inkscape:cx="622.54696"
     inkscape:cy="850.87364"
     inkscape:window-width="1688"
     inkscape:window-height="1212"
     inkscape:window-x="596"
     inkscape:window-y="25"
     inkscape:window-maximized="0"
     inkscape:current-layer="g1"
     showguides="false" /><g
     id="g1"
     transform="translate(-16.479866,-49.439597)"><title
       id="title1">Layer 1</title><path
       style="fill:#000000"
       d="m 24.777053,1490.7547 c 0,-153.8235 0.222715,-184.4165 1.337686,-183.75 0.735727,0.4398 72.505988,41.9569 159.489461,92.2602 86.98348,50.3033 157.81902,91.7903 157.41232,92.1934 -0.80422,0.797 -317.315436,183.8461 -317.889365,183.8461 -0.192556,0 -0.350102,-83.0474 -0.350102,-184.5497 z m 326.999997,7.5497 v -50 h 642.00003 642.00002 v 50 50 H 993.77708 351.77705 Z m 67.46588,-157.0617 c -25.44927,-2.4445 -48.26779,-15.6351 -56.71022,-32.7824 -4.07988,-8.2865 -4.97445,-19.1287 -2.26327,-27.4307 2.36234,-7.2338 36.11743,-92.119 47.99546,-120.696 40.20841,-96.7363 72.58607,-158.197 103.80022,-197.03806 10.97651,-13.65853 28.96361,-30.89023 40.47262,-38.7729 27.15122,-18.59623 57.43262,-27.44717 88.65395,-25.91265 38.33817,1.88431 68.5871,15.85743 97.99919,45.26952 18.8682,18.8682 33.26639,38.10175 71.80916,95.92489 31.51301,47.2769 47.02882,68.8024 60.84198,84.4078 l 8.32732,9.4078 3.80429,-4.2869 c 4.77347,-5.379 17.4196,-24.1029 26.02235,-38.5287 23.23574,-38.9636 44.46727,-82.42 96.00422,-196.50001 70.4493,-155.94348 101.5265,-214.9984 139.1719,-264.46374 10.1252,-13.30427 29.1371,-33.49038 39.4043,-41.83788 31.1144,-25.2969 64.9475,-36.7857 104.4019,-35.4519 100.6134,3.4013 169.0902,88.55062 265.9908,330.75352 26.4432,66.09484 89.0868,235.75531 91.8684,248.81141 2.3835,11.1873 -2.7336,24.9415 -13.0629,35.1116 -6.8718,6.7659 -19.6301,13.8051 -31.0362,17.1237 -10.6407,3.0959 -33.418,3.8513 -45.0677,1.4947 -20.3727,-4.1213 -38.8905,-15.9067 -46.2222,-29.4175 -1.3801,-2.5432 -9.5673,-24.1989 -18.194,-48.1239 -60.569,-167.98135 -95.7889,-255.97306 -131.4867,-328.50001 -18.6981,-37.98896 -34.0741,-64.85123 -50.3009,-87.87746 -7.1643,-10.16627 -19.4616,-25.25217 -24.0967,-29.5609 l -2.623,-2.43835 -4.0537,3.93835 c -5.8029,5.63778 -17.3139,20.88678 -27.397,36.29368 -26.7466,40.86889 -55.034,96.98154 -108.7102,215.64468 -65.1794,144.09341 -90.2194,193.82971 -120.0421,238.43621 -36.79368,55.0332 -73.03843,81.0766 -122.66761,88.142 -13.34546,1.8999 -37.04393,0.7241 -51.59954,-2.56 -41.93559,-9.4618 -75.30189,-33.236 -113.05329,-80.5529 -13.35553,-16.7396 -26.58358,-35.6027 -55.02522,-78.4653 -23.0709,-34.7687 -44.60574,-65.2598 -47.24132,-66.8886 -1.28633,-0.795 -12.38657,14.5716 -21.95154,30.3886 -27.00957,44.664 -51.73341,98.9607 -95.85067,210.5 -10.65956,26.95 -20.53819,51.3199 -21.9525,54.1553 -10.89121,21.8346 -42.93856,35.4549 -75.95958,32.283 z M 27.777053,238.75427 c 0,-101.4474 0.174921,-184.449897 0.388712,-184.449897 0.613959,0 316.957665,182.946397 317.799675,183.788397 0.41513,0.4151 -63.45571,37.8701 -141.93519,83.2332 -78.47947,45.3631 -150.241686,86.8434 -159.471577,92.1783 l -16.78162,9.6999 z m 327.999997,-0.4499 v -50 h 642.00003 642.00002 v 50 50 H 997.77708 355.77705 Z"
       id="path4" /></g></svg>
