<?xml version="1.0" encoding="UTF-8" standalone="no"?>
<svg
   width="1637.0000000000002"
   height="1637.0000000000002"
   version="1.1"
   id="svg1"
   sodipodi:docname="intentisty-threshold.svg"
   inkscape:export-filename="fill-2d.png"
   inkscape:export-xdpi="96"
   inkscape:export-ydpi="96"
   xml:space="preserve"
   inkscape:version="1.3.2 (091e20e, 2023-11-25)"
   xmlns:inkscape="http://www.inkscape.org/namespaces/inkscape"
   xmlns:sodipodi="http://sodipodi.sourceforge.net/DTD/sodipodi-0.dtd"
   xmlns="http://www.w3.org/2000/svg"
   xmlns:svg="http://www.w3.org/2000/svg"><defs
     id="defs1"><rect
       x="253.29991"
       y="420.97731"
       width="492.3294"
       height="767.03494"
       id="rect12" /><inkscape:path-effect
       effect="bspline"
       id="path-effect4"
       is_visible="true"
       lpeversion="1.3"
       weight="33.333333"
       steps="2"
       helper_size="0"
       apply_no_weight="true"
       apply_with_weight="true"
       only_selected="false"
       uniform="false" /><inkscape:path-effect
       effect="fillet_chamfer"
       id="path-effect3"
       is_visible="true"
       lpeversion="1"
       nodesatellites_param="F,0,0,1,0,0,0,1 @ F,0,0,1,0,0,0,1 @ F,0,0,1,0,157.40711,0,1 @ F,0,0,1,0,114.00446,0,1 @ F,0,0,1,0,0,0,1"
       radius="0"
       unit="px"
       method="auto"
       mode="F"
       chamfer_steps="1"
       flexible="false"
       use_knot_distance="true"
       apply_no_radius="true"
       apply_with_radius="true"
       only_selected="false"
       hide_knots="false" /></defs><sodipodi:namedview
     id="namedview1"
     pagecolor="#ffffff"
     bordercolor="#000000"
     borderopacity="0.25"
     inkscape:showpageshadow="2"
     inkscape:pageopacity="0.0"
     inkscape:pagecheckerboard="0"
     inkscape:deskcolor="#d1d1d1"
     inkscape:zoom="0.28030014"
     inkscape:cx="638.60118"
     inkscape:cy="850.87364"
     inkscape:window-width="1688"
     inkscape:window-height="1212"
     inkscape:window-x="596"
     inkscape:window-y="42"
     inkscape:window-maximized="0"
     inkscape:current-layer="g1" /><g
     id="g1"
     transform="translate(-16.479866,-49.439597)"><title
       id="title1">Layer 1</title><text
       xml:space="preserve"
       style="font-weight:bold;font-size:38.6667px;font-family:Sans;-inkscape-font-specification:'Sans, Bold';text-align:center;text-anchor:middle;fill:none;stroke:#000000;stroke-width:25;stroke-linecap:round;stroke-dasharray:none;stroke-dashoffset:0"
       x="316.15863"
       y="463.28171"
       id="text9"><tspan
         sodipodi:role="line"
         id="tspan9"></tspan></text><text
       xml:space="preserve"
       style="font-weight:normal;font-size:106.667px;font-family:Sans;-inkscape-font-specification:Sans;text-align:center;text-anchor:middle;fill:none;stroke:#000000;stroke-width:25;stroke-linecap:round;stroke-dasharray:none;stroke-dashoffset:0;font-style:normal;font-stretch:normal;font-variant:normal"
       x="490.97125"
       y="937.77307"
       id="text13"><tspan
         sodipodi:role="line"
         id="tspan13"
         x="490.97125"
         y="937.77307" /></text><path
       style="fill:#000000"
       d="m 786.3132,1681.4658 c -0.18333,-0.5356 -8.36158,-1.432 -18.17388,-1.9919 -9.8123,-0.5599 -20.6123,-1.4624 -24,-2.0055 -3.3877,-0.5432 -10.20945,-1.4938 -15.15945,-2.1126 -12.7657,-1.5957 -25.63428,-3.506 -35.5,-5.2698 -4.675,-0.8358 -11.65,-2.037 -15.5,-2.6695 -6.4931,-1.0666 -9.58276,-1.7378 -23,-4.9962 -2.75,-0.6679 -7.7,-1.8003 -11,-2.5165 -10.98737,-2.3846 -22.4652,-5.4076 -36,-9.4814 -3.85,-1.1588 -8.575,-2.4605 -10.5,-2.8927 -3.12709,-0.702 -39.72826,-12.8531 -45.2837,-15.0335 -1.21897,-0.4785 -4.6913,-1.836 -7.7163,-3.0168 -3.025,-1.1808 -6.4,-2.5342 -7.5,-3.0075 -1.1,-0.4734 -6.275,-2.5265 -11.5,-4.5625 -10.14177,-3.9519 -12.56816,-5.0015 -26.30913,-11.3804 -4.84503,-2.2492 -9.0376,-4.0894 -9.31684,-4.0894 -1.84613,0 -48.13532,-24.0797 -61.87403,-32.1869 -6.05,-3.5702 -11.675,-6.8062 -12.5,-7.1914 -3.87093,-1.8069 -36.78855,-23.1205 -47.56765,-30.7993 -12.14099,-8.6489 -29.04078,-21.0777 -33.52653,-24.6568 -2.5268,-2.0161 -8.87714,-7.0406 -14.11187,-11.1656 -5.23473,-4.125 -13.29235,-10.8134 -17.90582,-14.863 -4.61348,-4.0497 -11.30451,-9.8997 -14.86897,-13 -3.56445,-3.1004 -16.87206,-15.987 -29.57244,-28.637 -20.98221,-20.899 -27.29614,-27.6322 -45.85436,-48.8997 -11.74076,-13.4548 -33.89209,-42.0751 -46.09236,-59.553 -2.75,-3.9397 -5.45,-7.7116 -6,-8.3821 -1.97929,-2.4131 -5.5,-7.5949 -5.5,-8.0949 0,-0.2809 -2.18673,-3.7866 -4.85941,-7.7905 -10.0721,-15.0889 -22.42124,-35.0761 -24.2404,-39.2335 -0.49248,-1.1255 -1.45899,-2.9293 -2.14781,-4.0084 -3.57124,-5.5951 -6.52777,-11.0133 -14.73453,-27.0031 -4.94689,-9.6384 -9.426375,-18.3142 -9.954405,-19.2796 -1.23003,-2.2488 -8.06345,-17.3202 -8.06345,-17.7842 0,-0.1929 -1.96456,-4.5403 -4.36569,-9.6609 -2.40113,-5.1206 -4.7062,-10.4351 -5.12239,-11.8101 -0.41618,-1.375 -1.07833,-2.95 -1.47143,-3.5 -0.3931,-0.55 -1.77934,-3.925 -3.08053,-7.5 -1.30119,-3.575 -2.94671,-7.625 -3.65672,-9 -0.71,-1.375 -1.29369,-3.1975 -1.29708,-4.05 -0.003,-0.8525 -0.42465,-1.9775 -0.93614,-2.5 -1.08464,-1.108 -1.82249,-3.1601 -10.94839,-30.45 -3.77043,-11.275 -7.64146,-23.425 -8.60229,-27 -0.96084,-3.575 -2.34999,-8.525 -3.08702,-11 -0.73703,-2.475 -2.05533,-6.8942 -2.92956,-9.8205 -0.87423,-2.9263 -1.99829,-7.2013 -2.49792,-9.5 -2.1572,-9.9251 -3.25301,-14.476 -4.58567,-19.0443 -0.78054,-2.6757 -1.41917,-5.8816 -1.41917,-7.1243 0,-1.2427 -0.675,-4.1726 -1.5,-6.5109 -0.825,-2.3383 -1.5,-5.5649 -1.5,-7.1702 0,-1.6053 -0.62788,-5.7113 -1.39528,-9.1243 -3.04042,-13.5223 -5.01154,-25.83893 -7.55462,-47.2055 -0.58916,-4.95 -1.52366,-11.537 -2.07667,-14.63778 -0.55301,-3.10078 -1.44292,-13.64793 -1.97757,-23.43812 -0.53466,-9.79019 -1.42744,-18.25569 -1.98398,-18.81222 -1.35895,-1.35895 -1.39627,-93.31364 -0.0381,-93.77855 0.5356,-0.18333 1.43194,-8.36158 1.99187,-18.17388 0.55992,-9.8123 1.46242,-20.6123 2.00555,-24 0.54313,-3.3877 1.49377,-10.20945 2.11253,-15.15945 2.15262,-17.22078 4.56172,-32.54822 7.85878,-50 2.1084,-11.1601 4.74335,-23.03912 10.53619,-47.5 1.19863,-5.06131 4.30093,-16.10039 8.00935,-28.5 2.45118,-8.19586 15.28613,-46.5658 17.56154,-52.5 1.15991,-3.025 2.53991,-6.94624 3.06667,-8.71387 0.52677,-1.76763 1.39109,-3.48168 1.92073,-3.80902 0.52963,-0.32733 0.96297,-1.26828 0.96297,-2.09099 0,-0.82272 0.8204,-3.38366 1.8231,-5.69099 1.0027,-2.30732 2.64792,-6.22013 3.65605,-8.69513 1.86252,-4.57259 5.22448,-12.26283 8.52485,-19.5 1.00327,-2.2 2.80942,-6.25 4.01366,-9 3.22527,-7.3652 23.131305,-46.75399 26.026725,-51.5 3.25421,-5.33414 16.95562,-29.1516 16.95562,-29.47434 0,-0.38197 10.29868,-16.2374 14.11779,-21.73517 1.03521,-1.49023 1.88221,-2.94836 1.88221,-3.24028 0,-0.90388 13.16306,-19.82468 21.94924,-31.55021 3.09095,-4.125 6.389,-8.71731 7.32899,-10.20514 0.93999,-1.48782 2.53449,-3.51282 3.54332,-4.5 1.00884,-0.98717 6.15149,-7.41986 11.42812,-14.29486 5.27664,-6.875 10.96596,-13.97591 12.64295,-15.7798 1.67698,-1.80388 6.97141,-7.87888 11.76539,-13.5 16.65542,-19.52906 55.8422,-58.8868 72.40432,-72.7202 2.9632,-2.475 7.1989,-6.112 9.41266,-8.0822 2.21375,-1.9703 5.55022,-4.8953 7.41437,-6.5 1.86415,-1.6048 3.88915,-3.3678 4.5,-3.9178 0.61085,-0.55 2.91064,-2.3262 5.11064,-3.9471 2.2,-1.621 4.225,-3.2297 4.5,-3.5751 0.52883,-0.6641 30.35358,-23.2164 38,-28.7341 4.67742,-3.3753 32.24845,-21.9917 35.1644,-23.7437 2.42637,-1.4578 12.08473,-7.4062 13.8356,-8.521 0.825,-0.5254 7.8,-4.5825 15.5,-9.0158 7.7,-4.4334 14.675,-8.4667 15.5,-8.963 1.73489,-1.0437 28.09724,-14.6291 35.5,-18.2943 4.35149,-2.1544 9.09778,-4.3598 22,-10.2223 1.65,-0.7498 6.49737,-2.9653 10.77193,-4.9234 4.27456,-1.9581 8.1756,-3.5602 8.66896,-3.5602 0.49336,0 2.17099,-0.6392 3.72807,-1.4204 1.55707,-0.7812 4.85604,-2.167 7.33104,-3.0796 2.475,-0.9126 5.77396,-2.2984 7.33104,-3.0796 1.55707,-0.7812 3.35707,-1.4232 4,-1.4266 0.64292,0 2.50312,-0.7018 4.13377,-1.5521 1.63064,-0.8503 10.40564,-4.0189 19.5,-7.041402 9.09435,-3.0225 17.43519,-5.8674 18.53519,-6.3221 1.95118,-0.8065 10.4193,-3.4015 21.5,-6.5885 3.025,-0.8701 7.525,-2.185 10,-2.922 2.475,-0.737 7.425,-2.0958 11,-3.0196 3.575,-0.9237 8.78955,-2.3249 11.58789,-3.1138 2.79834,-0.7889 6.00916,-1.4343 7.13516,-1.4343 1.126,0 4.23645,-0.6457 6.91211,-1.4348 6.12816,-1.8074 18.18999,-4.5366 24.80216,-5.6119 9.41937,-1.5317 22.03272,-3.6833 28.06268,-4.7868 5.95143,-1.0891 17.90569,-2.7252 41,-5.6116 49.84609,-6.2298 127.15391,-6.2298 177,0 23.0943,2.8864 35.04856,4.5225 41,5.6116 6.02995,1.1035 18.6433,3.2551 28.06267,4.7868 6.61218,1.0753 18.674,3.8045 24.8022,5.6119 2.6757,0.7891 5.7861,1.4348 6.9121,1.4348 1.126,0 4.3368,0.6454 7.1352,1.4343 2.7983,0.7889 8.0129,2.1901 11.5879,3.1138 3.575,0.9238 8.525,2.2826 11,3.0196 2.475,0.737 6.975,2.0519 10,2.922 11.1943,3.2197 19.5553,5.7849 21.5,6.5963 1.1,0.459 8.9122,3.1138 17.3604,5.8996 8.4483,2.785802 17.2233,5.874002 19.5,6.862802 5.0199,2.1801 11.7505,4.8677 17.1396,6.8439 2.2,0.8068 5.2739,2.1061 6.831,2.8873 1.5571,0.7812 3.2347,1.4204 3.7281,1.4204 0.4933,0 4.3944,1.6021 8.6689,3.5602 4.2746,1.9581 9.122,4.1736 10.772,4.9234 12.9762,5.8961 17.6477,8.0686 22,10.2312 7.5328,3.743 33.7874,17.2721 35.5,18.2933 0.825,0.492 7.8,4.5217 15.5,8.9551 7.7,4.4333 14.675,8.4904 15.5,9.0158 1.7508,1.1148 11.4092,7.0632 13.8356,8.521 2.9159,1.752 30.4869,20.3684 35.1644,23.7437 7.6464,5.5177 37.4711,28.07 38,28.7341 0.275,0.3454 2.2937,1.9541 4.4861,3.5751 2.1923,1.6209 5.2925,4.0721 6.8893,5.4471 3.1351,2.6996 3.0059,2.5861 9.6683,8.5 2.4785,2.2 6.9307,6.025 9.8939,8.5 16.6692,13.9228 55.0647,52.50324 72.3716,72.7202 4.812,5.62112 10.1238,11.69612 11.804,13.5 2.5105,2.69534 19.4214,24.04637 27.3867,34.57734 3.7958,5.01855 14.0042,18.9852 15.5,21.2064 0.825,1.22514 2.2104,3.18795 3.0786,4.36179 3.8514,5.20697 10.9214,15.67477 10.9214,16.17023 0,0.29976 0.847,1.7643 1.8822,3.25453 3.8191,5.49777 14.1178,21.3532 14.1178,21.73517 0,0.32274 13.7014,24.1402 16.9556,29.47434 2.872,4.70758 22.7705,44.07141 26.0333,51.5 1.2079,2.75 3.32,7.475 4.6936,10.5 3.7237,8.20086 5.8134,12.99563 7.8447,18 1.0046,2.475 2.647,6.38781 3.6497,8.69513 1.0027,2.30733 1.8231,4.80483 1.8231,5.55 0,0.74518 0.3885,1.78237 0.8635,2.30487 0.4749,0.5225 1.3423,2.3 1.9275,3.95 0.5851,1.65 2.0099,5.475 3.1661,8.5 2.4788,6.4855 15.4172,45.28299 17.5079,52.5 0.7966,2.75 2.1524,7.475 3.0127,10.5 0.8603,3.025 2.2194,7.75 3.0201,10.5 0.8007,2.75 2.3924,9.05 3.5371,14 1.1447,4.95 2.6739,11.475 3.3983,14.5 5.5942,23.36117 10.4774,51.62868 14.0584,81.37941 0.8527,7.08367 1.7442,13.19322 1.9813,13.57676 0.237,0.38355 0.9132,9.21282 1.5026,19.6206 0.5894,10.40777 1.5111,19.07323 2.0481,19.25656 1.3386,0.45701 1.3317,92.87956 -0.01,93.33333 -0.5463,0.18517 -1.428,8.49486 -1.9837,18.69392 -0.5501,10.09832 -1.4528,20.89832 -2.006,24 -0.5532,3.10168 -1.4879,9.68942 -2.077,14.63942 -2.5431,21.36657 -4.5142,33.6832 -7.5547,47.2055 -0.7674,3.413 -1.3952,7.4235 -1.3952,8.9121 0,1.4886 -0.646,4.9962 -1.4355,7.7945 -0.7895,2.7983 -1.9346,7.3379 -2.5446,10.0879 -4.5608,20.5594 -7.3116,31.3002 -12.0371,47 -1.1588,3.85 -2.4626,8.575 -2.8974,10.5 -0.4348,1.925 -3.0925,10.25 -5.9058,18.5 -2.8134,8.25 -5.6436,16.575 -6.2893,18.5 -2.0078,5.9861 -4.0196,11.3765 -5.4114,14.5 -0.7353,1.65 -2.9684,7.275 -4.9624,12.5 -1.994,5.225 -4.276,10.918 -5.071,12.6511 -0.7951,1.7331 -1.4455,3.412 -1.4455,3.7308 0,0.3188 -1.7337,4.3008 -3.8527,8.8489 -2.1189,4.548 -5.1296,11.1942 -6.6903,14.7692 -3.3821,7.7469 -24.1919,48.9489 -27.5806,54.6075 -1.307,2.1825 -2.94,4.8512 -3.6288,5.9304 -0.6888,1.0791 -1.6553,2.8829 -2.1478,4.0084 -1.7893,4.0891 -14.0189,23.9029 -24.0433,38.9537 -2.5642,3.85 -4.9688,7.675 -5.3435,8.5 -0.3746,0.825 -3.1506,4.875 -6.1688,9 -3.0181,4.125 -7.159,9.975 -9.202,13 -6.4411,9.5375 -33.5016,44.1916 -40.215,51.5 -2.0209,2.2 -7.7112,8.725 -12.6452,14.5 -4.9339,5.775 -19.0983,20.6271 -31.4763,33.0046 -24.9701,24.9691 -31.5501,31.2045 -44.0056,41.7009 -4.675,3.9397 -9.8871,8.4302 -11.5823,9.9788 -1.6953,1.5486 -7.703,6.4157 -13.3504,10.8157 -5.6474,4.4 -13.0148,10.1874 -16.372,12.8608 -3.3572,2.6735 -7.2495,5.5806 -8.6497,6.4603 -1.4001,0.8797 -5.0206,3.462 -8.0456,5.7386 -10.4123,7.8358 -19.5166,14.0434 -39.5,26.9318 -13.8289,8.9191 -17.4611,11.1785 -19.5,12.1302 -0.825,0.3852 -6.45,3.6212 -12.5,7.1914 -13.7387,8.1072 -60.0279,32.1869 -61.8741,32.1869 -0.2792,0 -4.4718,1.8402 -9.3168,4.0894 -13.741,6.3789 -16.1674,7.4285 -26.3091,11.3804 -5.225,2.036 -10.4,4.0891 -11.5,4.5625 -1.1,0.4733 -4.475,1.8267 -7.5,3.0075 -3.025,1.1808 -6.5754,2.5739 -7.8897,3.0957 -5.0393,2.0009 -41.7813,14.1628 -45.1103,14.9319 -1.925,0.4447 -6.65,1.7566 -10.5,2.9154 -13.5348,4.0738 -25.0127,7.0968 -36,9.4814 -3.3,0.7162 -8.25,1.8486 -11,2.5165 -13.41732,3.2584 -16.50698,3.9296 -23.00007,4.9962 -3.85,0.6325 -10.825,1.8337 -15.5,2.6695 -9.86572,1.7638 -22.7343,3.6741 -35.5,5.2698 -4.95,0.6188 -11.77176,1.5694 -15.15946,2.1126 -3.3877,0.5431 -14.1877,1.4456 -24,2.0055 -9.8123,0.5599 -17.99054,1.4563 -18.17388,1.9919 -0.20988,0.6131 -17.67871,0.9738 -47.16666,0.9738 -29.48796,0 -46.95679,-0.3607 -47.16667,-0.9738 z m 106.16667,-102.8647 c 7.975,-0.6831 18.57589,-1.8989 23.55753,-2.7018 4.98165,-0.8028 10.71001,-1.4597 12.72969,-1.4597 2.01969,0 7.1688,-0.6394 11.44247,-1.4209 10.27871,-1.8797 19.02076,-3.4363 28.77031,-5.1229 4.4,-0.7612 11.0375,-2.0753 14.75,-2.9201 3.7125,-0.8449 9.5625,-2.1555 13,-2.9124 8.99083,-1.9799 15.60183,-3.6108 20.75003,-5.1187 2.475,-0.725 6.975,-2.0021 10,-2.8381 7.1998,-1.9896 45.424,-14.3129 50.25,-16.2003 2.0625,-0.8066 5.4375,-2.1056 7.5,-2.8866 16.5971,-6.2846 25.9471,-10.0508 33.75,-13.5945 2.2,-0.9991 7.15,-3.2273 11,-4.9515 9.8732,-4.4216 44.094,-21.7526 48.7295,-24.6789 2.1273,-1.3429 4.8583,-2.871 6.0691,-3.396 1.2107,-0.5249 2.8764,-1.395 3.7014,-1.9336 0.825,-0.5386 5.4155,-3.2441 10.2012,-6.0123 4.7856,-2.7681 11.6525,-7.0535 15.2597,-9.5231 3.6072,-2.4695 6.7699,-4.4901 7.0283,-4.4901 0.4925,0 14.081,-9.1183 26.0108,-17.4541 19.4757,-13.6083 54.9227,-42.3817 71.455,-58.0021 14.9041,-14.082 42.4021,-42.2587 49.8145,-51.0438 4.1765,-4.95 8.9136,-10.35 10.5269,-12 3.7305,-3.8154 24.2809,-30.0932 32.3683,-41.3893 3.3906,-4.7359 8.253,-11.5357 10.8054,-15.1107 3.8322,-5.3676 12.9931,-19.2422 18.2209,-27.5966 3.6545,-5.84 15.0942,-25.1272 15.6605,-26.4034 0.3661,-0.825 1.6326,-3.075 2.8145,-5 2.8269,-4.6046 21.553,-41.6869 25.2493,-50 1.5896,-3.575 4.3964,-9.7724 6.2374,-13.7719 1.841,-3.9996 3.3473,-7.8511 3.3473,-8.5589 0,-0.7078 0.6607,-2.1605 1.4682,-3.2281 0.8075,-1.0676 1.4852,-2.6161 1.5061,-3.4411 0.021,-0.825 0.6307,-2.6357 1.3551,-4.0237 0.7244,-1.388 1.8094,-3.863 2.411,-5.5 6.7304,-18.3123 8.5501,-23.4133 9.2667,-25.9763 0.4613,-1.65 1.9503,-6.15 3.3087,-10 1.3585,-3.85 3.4373,-10.375 4.6197,-14.5 4.6099,-16.0828 5.3523,-18.5764 6.1874,-20.7828 0.4752,-1.2555 1.5261,-5.3055 2.3353,-9 1.4953,-6.8268 3.315,-14.8036 6.1509,-26.9636 0.8663,-3.7145 2.1709,-10.1286 2.8991,-14.2536 3.7796,-21.40928 4.5572,-26.18867 5.5315,-34 0.5831,-4.675 1.7127,-12.57589 2.5102,-17.55754 0.7975,-4.98164 1.4501,-11.61686 1.4501,-14.74492 0,-3.12806 0.7003,-12.1027 1.5563,-19.94364 1.2137,-11.11842 1.4754,-22.61989 1.1887,-52.25508 -0.3593,-37.14134 -1.3302,-54.75451 -4.2446,-76.99882 -0.7926,-6.05 -1.9158,-14.6 -2.4959,-19 -1.6096,-12.20741 -6.1176,-38.05613 -8.4584,-48.5 -0.8013,-3.575 -1.9604,-8.75 -2.5758,-11.5 -1.5724,-7.02577 -3.8415,-16.12625 -5.4856,-22 -3.2041,-11.44767 -5.7753,-20.25692 -7.0882,-24.28495 -0.7681,-2.35672 -1.3965,-5.07922 -1.3965,-6.05 0,-0.97078 -0.3931,-2.19255 -0.8736,-2.71505 -0.4804,-0.5225 -2.1207,-5 -3.6449,-9.95 -1.5243,-4.95 -3.1562,-9.4275 -3.6265,-9.95 -0.4703,-0.5225 -0.8578,-1.8725 -0.8612,-3 0,-1.1275 -0.6784,-3.33894 -1.5,-4.91431 -0.8216,-1.57537 -1.4938,-3.28756 -1.4938,-3.80486 0,-0.51731 -0.8204,-2.82837 -1.8231,-5.1357 -1.7473,-4.02058 -3.2172,-7.6659 -6.833,-16.94513 -0.9109,-2.3375 -2.9359,-7.0637 -4.5,-10.50267 -1.5642,-3.43897 -2.8439,-6.47518 -2.8439,-6.74714 0,-2.60612 -25.0186,-51.88335 -34.0168,-67.00019 -2.619,-4.4 -5.6068,-9.575 -6.6395,-11.5 -3.4822,-6.49104 -23.2698,-36.71208 -31.3437,-47.87048 -11.8814,-16.42029 -31.4372,-41.37877 -38.1029,-48.62952 -2.0225,-2.2 -6.3019,-7.15 -9.5096,-11 -15.5429,-18.65463 -65.773,-66.44628 -86.8875,-82.66952 -3.3,-2.53553 -7.0814,-5.55968 -8.403,-6.72028 -1.3217,-1.1606 -2.6717,-2.1188 -3,-2.1294 -0.3284,-0.011 -2.397,-1.6196 -4.597,-3.5757 -2.2,-1.9561 -6.25,-5.0576 -9,-6.8921 -2.75,-1.8346 -8.15,-5.6023 -12,-8.3727 -9.3996,-6.7639 -12.7524,-9.0557 -21,-14.3549 -3.85,-2.4736 -10.15,-6.5201 -14,-8.9922 -7.8184,-5.0203 -14.7417,-9.1463 -18.5,-11.0254 -1.375,-0.6874 -6.775,-3.7361 -12,-6.7748 -5.225,-3.0387 -16.925,-9.1676 -26,-13.6198 -16.2175,-7.9562 -18.4655,-9.0166 -32.5,-15.3301 -3.85,-1.7319 -7.9,-3.555 -9,-4.0512 -3.6229,-1.6344 -9.9566,-4.1761 -12.5,-5.0163 -1.375,-0.4542 -4.975,-1.8016 -8,-2.9944 -7.9522,-3.1354 -32.9787,-12.0014 -36.5,-12.9306 -1.65,-0.4354 -4.125,-1.2417 -5.5,-1.7917 -1.375,-0.55 -4.975,-1.7062 -8,-2.5692 -3.025,-0.8631 -7.75,-2.2212 -10.5,-3.0182 -13.6579,-3.9579 -19.6303,-5.5576 -26.5,-7.0979 -4.12503,-0.9249 -9.97503,-2.2908 -13.00003,-3.0353 -20.92207,-5.1493 -54.84896,-10.6367 -83.5,-13.5053 -31.41254,-3.1451 -39.48192,-3.533 -73.5,-3.533 -21.66793,0 -41.98584,0.5144 -50,1.2659 -21.42475,2.009 -33.68256,3.293 -45.5,4.7661 -10.0545,1.2534 -15.47495,2.1095 -34.5,5.4492 -8.83918,1.5516 -20.35849,3.9225 -27,5.5571 -3.025,0.7445 -8.875,2.1046 -13,3.0225 -7.41766,1.6505 -9.35798,2.1655 -24,6.3706 -16.77441,4.8174 -18.6001,5.3675 -21,6.3275 -1.375,0.55 -3.85,1.3563 -5.5,1.7917 -3.52136,0.9292 -28.54788,9.7952 -36.5,12.9306 -3.025,1.1928 -6.625,2.5402 -8,2.9944 -2.54341,0.8402 -8.87714,3.3819 -12.5,5.0163 -1.1,0.4962 -5.15,2.3193 -9,4.0512 -14.03457,6.3135 -16.28252,7.3739 -32.5,15.3301 -9.075,4.4522 -20.92937,10.6896 -26.34304,13.8608 -5.41366,3.1713 -10.0798,5.766 -10.36919,5.766 -0.64347,0 -10.33925,5.7923 -19.78777,11.8213 -21.69174,13.8413 -23.54518,15.0761 -35,23.319 -3.85,2.7704 -9.25,6.5381 -12,8.3727 -2.75,1.8345 -6.8,4.936 -9,6.8921 -2.2,1.9561 -4.26865,3.5652 -4.59699,3.5757 -0.32835,0.011 -1.67835,0.9688 -3,2.1294 -1.32166,1.1606 -5.10301,4.18475 -8.40301,6.72028 -21.11458,16.22324 -71.34467,64.01489 -86.88751,82.66952 -3.20778,3.85 -7.48709,8.8 -9.50958,11 -10.69049,11.62874 -37.74204,47.2725 -50.09019,66 -2.90118,4.4 -6.11589,9.21928 -7.1438,10.7095 -1.02791,1.49023 -1.86892,2.92429 -1.86892,3.1868 0,0.2625 -2.025,3.4351 -4.5,7.0502 -2.475,3.61511 -4.5,6.78795 -4.5,7.05076 0,0.26281 -2.86164,5.32094 -6.35919,11.24029 -8.76756,14.83842 -11.22232,19.38931 -20.36915,37.76245 -8.05986,16.18972 -9.58679,19.39626 -15.23817,32 -5.00146,11.15425 -5.69421,12.76865 -7.29488,17 -2.35369,6.22196 -4.92133,12.6063 -6.91552,17.19513 -1.0027,2.30733 -1.82309,4.80483 -1.82309,5.55 0,0.74518 -0.38789,1.78237 -0.86196,2.30487 -0.47408,0.5225 -2.7862,7.025 -5.13804,14.45 -2.35185,7.425 -4.66397,13.9275 -5.13804,14.45 -0.47408,0.5225 -0.86196,1.74427 -0.86196,2.71505 0,0.97078 -0.62846,3.69328 -1.39658,6.05 -1.31284,4.02803 -3.88405,12.83728 -7.08819,24.28495 -1.64403,5.87375 -3.91316,14.97423 -5.48553,22 -0.61545,2.75 -1.77459,7.925 -2.57586,11.5 -2.18143,9.73272 -6.53896,34.48924 -8.36073,47.5 -5.31282,37.94322 -6.44711,54.01923 -6.84414,97 -0.27239,29.48834 -0.004,41.19301 1.20001,52.25508 0.85306,7.84029 1.55102,16.8144 1.55102,19.94246 0,3.12806 0.65251,9.76328 1.45004,14.74492 0.79752,4.98165 1.92713,12.88254 2.51025,17.55754 1.55931,12.50139 5.9983,37.9724 8.36524,48 2.22108,9.4096 4.53166,19.5263 6.2162,27.2172 0.80921,3.6945 1.86011,7.7445 2.33534,9 0.83513,2.2064 1.57753,4.7 6.18739,20.7828 1.18236,4.125 3.26122,10.65 4.61968,14.5 1.35846,3.85 2.84737,8.35 3.30869,10 0.71658,2.563 2.53629,7.664 9.26671,25.9763 0.60165,1.637 1.68661,4.112 2.41102,5.5 0.72441,1.388 1.3342,3.1987 1.35508,4.0237 0.0209,0.825 0.69865,2.3735 1.50616,3.4411 0.80751,1.0676 1.4682,2.5203 1.4682,3.2281 0,0.7078 1.59934,4.7843 3.55408,9.0589 1.95475,4.2745 3.93777,8.6719 4.4067,9.7719 2.10923,4.9477 25.37441,51.3153 27.09478,54 1.05732,1.65 2.22304,3.675 2.59047,4.5 0.56913,1.2779 12.03077,20.5991 15.66288,26.4034 5.22789,8.3544 14.38874,22.229 18.22094,27.5966 2.55238,3.575 7.41482,10.3748 10.80542,15.1107 8.08735,11.2961 28.63777,37.5739 32.36827,41.3893 1.6133,1.65 6.34848,7.05 10.52264,12 7.43857,8.8212 35.04184,37.1086 49.80934,51.0438 16.6268,15.6898 52.01954,44.4153 71.46448,58.0021 11.92979,8.3358 25.51831,17.4541 26.01077,17.4541 0.25839,0 3.42113,2.0206 7.02831,4.4901 3.60718,2.4696 10.47406,6.755 15.25972,9.5231 4.78566,2.7682 9.3762,5.4737 10.2012,6.0123 0.825,0.5386 2.49062,1.4087 3.70138,1.9336 1.21076,0.525 3.94183,2.0531 6.06903,3.396 4.63555,2.9263 38.85634,20.2573 48.72959,24.6789 3.85,1.7242 8.8,3.9524 11,4.9515 7.78858,3.5372 19.58563,8.2849 33.5,13.4818 1.925,0.719 5.3,2.0179 7.5,2.8865 4.91623,1.9411 42.93861,14.2235 50.5,16.3131 3.025,0.836 7.525,2.1131 10,2.8381 5.24373,1.5359 11.89043,3.1709 21,5.1656 3.575,0.7829 9.425,2.0935 13,2.9125 3.575,0.819 10.1,2.1049 14.5,2.8575 4.4,0.7526 10.475,1.8351 13.5,2.4054 17.57004,3.3129 37.19029,5.8894 55,7.2225 7.425,0.5558 16.2,1.3961 19.5,1.8674 8.83444,1.2617 89.58604,0.6745 106.5,-0.7744 z m -58.49763,-101.309 c -0.28245,-0.7439 -0.39853,-275.4025 -0.25796,-610.3525 l 0.25559,-609 16,0.1868 c 22.96628,0.2681 42.66154,1.9033 70.5,5.8531 30.45995,4.3217 42.19753,6.21 47.5,7.6415 2.2,0.594 6.475,1.656 9.5,2.3601 5.29876,1.2332 10.70417,2.5659 23.50003,5.7936 3.3,0.8324 8.925,2.2119 12.5,3.0656 7.4458,1.778 13.1599,3.5693 21,6.583 3.025,1.1628 8.65,3.2011 12.5,4.5294 18.6779,6.4446 33.4003,11.8758 36.1848,13.3488 0.9983,0.5281 6.0902,2.98324 11.3152,5.45577 35.577,16.83546 40.1431,19.3073 79.8062,43.20276 7.5248,4.53341 25.7719,17.7537 39.0656,28.30363 1.8546,1.47177 5.2296,3.93889 7.5,5.48249 2.2705,1.54361 8.6282,6.80042 14.1282,11.6818 25.6625,22.77611 37.053,33.7618 49.7807,48.01165 6.6319,7.425 15.2208,17.02743 19.0865,21.33874 6.779,7.56043 11.4891,13.65982 22.1328,28.66066 2.75,3.87578 5.675,7.89448 6.5,8.93046 0.825,1.03598 2.175,2.87645 3,4.08994 0.825,1.21349 3.525,4.98424 6,8.37946 5.1575,7.07515 5.9081,8.25991 9.5668,15.10074 1.4708,2.75 3.97,6.93506 5.5537,9.30013 1.5837,2.36507 2.8795,4.47173 2.8795,4.68146 0,0.20974 3.3429,6.02863 7.4287,12.93087 7.8094,13.19241 11.6609,20.88341 23.5806,47.08754 1.0007,2.2 3.4932,7.6 5.5389,12 3.3126,7.12489 12.1841,31.05786 14.4565,39 0.9356,3.2698 3.5627,10.81782 4.8728,14 1.9895,4.83244 3.4497,9.65368 5.7545,19 1.3564,5.5 3.119,12.18917 3.917,14.86483 0.798,2.67566 1.451,5.56111 1.451,6.41211 0,0.851 0.6357,3.83682 1.4128,6.63516 4.8498,17.46572 6.3403,25.59681 11.014,60.0879 0.8198,6.05 1.9592,13.42392 2.5319,16.38649 0.5727,2.96257 1.0381,8.36257 1.0343,12 0,3.63743 0.7405,17.41351 1.654,30.61351 1.4397,20.80192 1.495,26.86494 0.4154,45.5 -0.6851,11.825 -1.5974,28.25 -2.0273,36.5 -0.4299,8.25 -1.2859,17.7 -1.9021,21 -1.2577,6.73479 -2.6152,16.00994 -4.6104,31.5 -1.4358,11.14761 -2.7129,18.07677 -4.9762,27 -2.1484,8.4702 -5.472,22.005 -8.1034,33 -2.8782,12.0263 -3.6523,14.7649 -6.077,21.5 -1.3861,3.85 -2.9075,8.35 -3.381,10 -1.1951,4.1643 -6.8349,20.5688 -7.9074,23 -0.4852,1.1 -1.8835,4.925 -3.1072,8.5 -2.3131,6.7575 -3.33,9.1653 -9.5022,22.5 -2.0367,4.4 -4.8179,10.475 -6.1806,13.5 -6.0511,13.4331 -7.6673,16.9009 -10.8227,23.222 -5.7002,11.4189 -31.9521,54.7849 -38.9111,64.278 -3.6286,4.95 -8.5416,11.7 -10.9176,15 -11.5686,16.0674 -16.1586,21.8805 -25.6612,32.5 -5.6598,6.325 -13.2571,14.8323 -16.8828,18.9052 -3.6257,4.0728 -8.4145,9.2478 -10.6418,11.5 -5.1237,5.1809 -32.3423,30.479 -40.8366,37.9553 -8.9572,7.8838 -53.9265,40.8691 -58.6138,42.9938 -0.825,0.3739 -8.7,5.1578 -17.5,10.6307 -14.7093,9.1482 -32.9169,18.6898 -64,33.5392 -6.6,3.1531 -13.125,6.0913 -14.5,6.5294 -1.375,0.4381 -4.975,1.7523 -8,2.9204 -3.025,1.1682 -8.65,3.2059 -12.5,4.5283 -12.5216,4.301 -15.9672,5.537 -18,6.4568 -4.2381,1.9178 -21.1118,7.3613 -26.9143,8.6827 -3.3472,0.7622 -8.5607,2.0129 -11.5857,2.7792 -3.02503,0.7663 -8.65003,2.1498 -12.50003,3.0743 -3.85,0.9245 -9.475,2.2947 -12.5,3.045 -14.68465,3.6419 -29.63743,6.46 -34.27031,6.4589 -1.77633,-4e-4 -6.82969,0.645 -11.22969,1.4343 -23.45075,4.2068 -47.56008,6.5287 -75.24204,7.2466 -16.45476,0.4268 -20.33812,0.2719 -20.75559,-0.8276 z m -634.0374,-291.5969 c 2.37999,-9.5796 219.7836,-750.90181 220.3916,-751.51087 0.41468,-0.4154 42.10877,-0.6404 92.65353,-0.5 l 91.89957,0.25527 110.25106,376.5 c 60.63809,207.075 110.27091,376.84 110.29517,377.2555 0.0242,0.4155 -39.1937,0.6405 -87.15102,0.5 l -87.19511,-0.2555 -19.71146,-72.6943 c -10.8413,-39.9819 -20.00506,-73.1694 -20.3639,-73.75 -0.99162,-1.6045 -200.16026,-1.4701 -201.15271,0.1357 -0.40498,0.6553 -9.5906,33.8428 -20.4125,73.75 l -19.67619,72.5586 -85.25633,0.2556 -85.25633,0.2557 z M 568.23655,881.6896 c -0.26212,-0.9625 -13.1829,-48.55 -28.71284,-105.75 -15.52994,-57.2 -28.53046,-104.3127 -28.89005,-104.69488 -0.46289,-0.49197 -47.66128,170.9388 -57.8021,209.94488 l -0.58496,2.25 h 58.23327 c 54.97513,0 58.20659,-0.0979 57.75668,-1.75 z"
       id="path15" /></g></svg>
