<?xml version="1.0" encoding="UTF-8" standalone="no"?>
<svg
   width="1637"
   height="1637"
   version="1.1"
   id="svg1"
   sodipodi:docname="intersection.svg"
   inkscape:version="1.3.2 (091e20e, 2023-11-25)"
   xmlns:inkscape="http://www.inkscape.org/namespaces/inkscape"
   xmlns:sodipodi="http://sodipodi.sourceforge.net/DTD/sodipodi-0.dtd"
   xmlns:xlink="http://www.w3.org/1999/xlink"
   xmlns="http://www.w3.org/2000/svg"
   xmlns:svg="http://www.w3.org/2000/svg">
  <path
     style="fill:#000000"
     d="m 977.5,1636.9187 c -63.45566,-4.1872 -127.65139,-18.8954 -187.88107,-43.0465 -19.21787,-7.706 -58.94959,-27.229 -77.11893,-37.8939 -49.94821,-29.3184 -93.70799,-64.3616 -134.21234,-107.4783 -57.00945,-60.6864 -101.70816,-136.31 -128.26171,-217 -2.89592,-8.8 -5.77395,-16.5008 -6.39563,-17.113 -0.62167,-0.6121 -9.42235,-3.8891 -19.55706,-7.2822 C 395.66391,1197.5934 371.79994,1187.7021 345,1174.3303 309.48576,1156.6104 281.06766,1139.0449 251.38045,1116.463 142.12225,1033.3544 66.317445,917.74372 34.493248,785.68601 30.278589,768.19686 20.941351,717.43444 18.060282,696.34726 14.00042,666.63225 11.041747,623.1159 11.033709,593 11.006523,491.14157 37.793492,391.18988 89.021468,302 133.32848,224.85978 199.733,154.49957 274.5,105.47257 296.01008,91.367756 307.58836,84.652724 331.5,72.414413 383.70713,45.694071 434.69084,28.024959 491,17.137472 549.1805,5.8881601 614.66707,3.298363 672.51766,9.9589949 711.72193,14.472781 755.1296,21.773221 780.5,28.119806 c 89.83831,22.473691 168.86999,62.799354 242,123.479744 16.6622,13.82563 55.9465,53.09374 69.9292,69.90045 48.8417,58.70573 85.0846,123.46237 110.091,196.70431 l 5.7033,16.70431 14.1382,4.69677 c 120.9542,40.18127 219.6295,110.33432 293.4007,208.59281 23.5616,31.38251 36.3423,52.25511 55.5999,90.8018 35.0739,70.20522 54.6685,136.26041 63.1844,213 3.3767,30.42846 2.7659,117.9456 -1.0748,154 -12.687,119.0999 -58.7345,226.8817 -136.2857,319 -13.9696,16.5936 -53.4332,55.9132 -69.6862,69.4319 -89.0404,74.061 -188.6294,117.977 -305,134.4967 -58.8813,8.3587 -102.7669,10.777 -145,7.9901 z m 55,-91.4676 c 125.0257,-4.8907 245.8962,-52.4523 342,-134.5743 15.4193,-13.176 47.2623,-45.0885 59.7463,-59.8768 22.6702,-26.8545 45.5636,-59.3902 61.2166,-87 38.2772,-67.5157 61.4888,-141.0028 69.1731,-219 2.1834,-22.1611 2.5308,-78.87442 0.5666,-92.5 -4.6472,-32.23914 -16.2461,-72.14682 -32.2613,-111 -12.0239,-29.17021 -33.5841,-69.58461 -50.9472,-95.5 -52.4218,-78.2424 -127.5469,-144.58685 -211.4941,-186.77467 -16.0585,-8.07025 -38.7247,-18.33394 -39.2744,-17.78423 -0.1838,0.18376 0.2528,5.22219 0.9701,11.19651 1.7037,14.18857 1.6431,119.18257 -0.081,140.86239 -3.5538,44.6804 -14.8274,98.5326 -29.6223,141.5 -51.0534,148.26978 -157.4884,268.5846 -298.9921,337.9828 -59.03883,28.9546 -116.27816,46.2103 -185.5,55.9218 -53.64447,7.526 -54.23165,7.5681 -105.5,7.5597 -38.87335,-0.01 -49.42071,-0.3121 -61,-1.7686 -7.7,-0.9686 -15.27434,-2.0152 -16.83188,-2.3258 -2.82757,-0.5639 -2.82044,-0.5422 4.69965,14.2827 54.36378,107.1712 143.70638,194.5167 253.0702,247.413 44.84858,21.692 93.67382,37.9024 139.56203,46.3356 19.7296,3.6259 59.64887,6.7354 77,5.998 4.675,-0.1987 15.25,-0.6253 23.5,-0.9481 z M 421.9963,1107.25 c -0.002,-0.4125 -0.87977,-7.5 -1.95052,-15.75 -4.4246,-34.091 -5.54793,-54.1139 -5.49796,-98 0.0525,-46.14992 1.09444,-61.15333 6.47273,-93.20741 C 438.703,794.90678 481.20547,702.30706 550.35096,618.52162 562.04481,604.35188 607.18077,559.07886 621.5,547.15654 709.03036,474.27796 811.44669,428.5661 923,412.58694 c 32.97433,-4.72332 37.74201,-5.01179 82.5,-4.99164 46.7488,0.021 59.9533,0.80319 92.3686,5.47138 11.2027,1.61333 20.5345,2.93332 20.7374,2.93332 1.9857,0 -20.2506,-40.91811 -33.2089,-61.10921 C 1073.7495,336.74205 1053.2676,309.25657 1038.904,292.5 1025.8135,277.22868 996.04604,247.48 980.5,234.13297 899.11951,164.26383 798.58188,118.61528 693,103.5952 647.63277,97.141253 591.35714,96.349318 551.17877,101.59943 488.38258,109.805 412.40137,137.25026 350.20063,174.19496 269.60719,222.06417 199.02349,293.90565 151.92873,376 113.27051,443.388 87.039481,528.72629 81.999869,603.50195 c -3.125192,46.37029 7.168462,116.89693 25.169711,172.44941 34.25993,105.72737 109.42049,205.2091 206.25319,272.99454 27.62578,19.3388 60.60994,38.0532 91.93355,52.1608 15.61196,7.0313 16.64624,7.4132 16.63998,6.1433 z"
     id="path1" />
  <defs
     id="defs1" />
  <sodipodi:namedview
     id="namedview1"
     pagecolor="#ffffff"
     bordercolor="#000000"
     borderopacity="0.25"
     inkscape:showpageshadow="2"
     inkscape:pageopacity="0.0"
     inkscape:pagecheckerboard="0"
     inkscape:deskcolor="#d1d1d1"
     inkscape:zoom="0.35157424"
     inkscape:cx="759.4413"
     inkscape:cy="783.61827"
     inkscape:window-width="1392"
     inkscape:window-height="1212"
     inkscape:window-x="596"
     inkscape:window-y="76"
     inkscape:window-maximized="0"
     inkscape:current-layer="svg1"
     showgrid="false" />
</svg>
