<?xml version="1.0" encoding="UTF-8" standalone="no"?>
<svg
   width="1637.0000000000002"
   height="1637.0000000000002"
   version="1.1"
   id="svg1"
   sodipodi:docname="intentisty-threshold.svg"
   inkscape:export-filename="fill-2d.png"
   inkscape:export-xdpi="96"
   inkscape:export-ydpi="96"
   xml:space="preserve"
   inkscape:version="1.3.2 (091e20e, 2023-11-25)"
   xmlns:inkscape="http://www.inkscape.org/namespaces/inkscape"
   xmlns:sodipodi="http://sodipodi.sourceforge.net/DTD/sodipodi-0.dtd"
   xmlns="http://www.w3.org/2000/svg"
   xmlns:svg="http://www.w3.org/2000/svg"><defs
     id="defs1"><inkscape:path-effect
       effect="bspline"
       id="path-effect4"
       is_visible="true"
       lpeversion="1.3"
       weight="33.333333"
       steps="2"
       helper_size="0"
       apply_no_weight="true"
       apply_with_weight="true"
       only_selected="false"
       uniform="false" /><inkscape:path-effect
       effect="fillet_chamfer"
       id="path-effect3"
       is_visible="true"
       lpeversion="1"
       nodesatellites_param="F,0,0,1,0,0,0,1 @ F,0,0,1,0,0,0,1 @ F,0,0,1,0,157.40711,0,1 @ F,0,0,1,0,114.00446,0,1 @ F,0,0,1,0,0,0,1"
       radius="0"
       unit="px"
       method="auto"
       mode="F"
       chamfer_steps="1"
       flexible="false"
       use_knot_distance="true"
       apply_no_radius="true"
       apply_with_radius="true"
       only_selected="false"
       hide_knots="false" /></defs><sodipodi:namedview
     id="namedview1"
     pagecolor="#ffffff"
     bordercolor="#000000"
     borderopacity="0.25"
     inkscape:showpageshadow="2"
     inkscape:pageopacity="0.0"
     inkscape:pagecheckerboard="0"
     inkscape:deskcolor="#d1d1d1"
     inkscape:zoom="0.28030014"
     inkscape:cx="622.54696"
     inkscape:cy="850.87364"
     inkscape:window-width="1688"
     inkscape:window-height="1212"
     inkscape:window-x="596"
     inkscape:window-y="25"
     inkscape:window-maximized="0"
     inkscape:current-layer="g1"
     showguides="false" /><g
     id="g1"
     transform="translate(-16.479866,-49.439597)"><title
       id="title1">Layer 1</title><path
       style="fill:#000000"
       d="m 27.344657,1544.1692 v -56 H 833.34466 1639.3447 v 56 56 H 833.34466 27.344657 Z m 8,-252.9763 c 0,-129.0428 0.316667,-184.0848 1.057654,-183.8378 1.980338,0.6601 317.873379,183.3118 317.903489,183.8141 0.0165,0.275 -7.50553,4.8408 -16.71559,10.1462 -9.21005,5.3055 -61.29555,35.399 -115.74555,66.8745 -54.45,31.4756 -117.98598,68.2012 -141.191056,81.6125 -23.20508,13.4114 -42.89258,24.6535 -43.75,24.9826 -1.408452,0.5404 -1.558947,-17.1829 -1.558947,-183.5921 z m 387.465883,42.9147 c -25.44927,-2.4446 -48.26779,-15.6352 -56.71022,-32.7825 -4.07988,-8.2865 -4.97445,-19.1287 -2.26327,-27.4307 2.36234,-7.2338 36.11743,-92.119 47.99546,-120.696 40.20841,-96.7363 72.58607,-158.19702 103.80022,-197.03807 10.97651,-13.65852 28.96361,-30.89022 40.47262,-38.7729 27.15122,-18.59622 57.43262,-27.44717 88.65395,-25.91265 38.33817,1.88431 68.5871,15.85743 97.99919,45.26953 18.8682,18.86819 33.26639,38.10174 71.80916,95.92489 31.51301,47.2769 47.02882,68.8024 60.84198,84.4078 l 8.32732,9.4078 3.80429,-4.2869 c 4.77347,-5.379 17.4196,-24.1029 26.02235,-38.5287 23.23574,-38.9636 44.46727,-82.42 96.00421,-196.50002 70.4493,-155.94348 101.5265,-214.9984 139.1719,-264.46374 10.1252,-13.30427 29.1371,-33.49037 39.4043,-41.8379 31.1144,-25.29692 64.9475,-36.78566 104.4019,-35.45187 100.6134,3.40133 169.0902,88.55061 265.9908,330.75351 26.4432,66.09485 89.0868,235.75532 91.8684,248.81142 2.3835,11.1873 -2.7336,24.9415 -13.0629,35.1116 -6.8718,6.766 -19.6301,13.8051 -31.0362,17.1237 -10.6407,3.0959 -33.418,3.8513 -45.0677,1.4947 -20.3727,-4.1213 -38.8905,-15.9067 -46.2222,-29.4175 -1.3801,-2.5432 -9.5673,-24.1989 -18.194,-48.1239 -60.569,-167.98136 -95.7889,-255.97307 -131.4867,-328.50002 -18.6981,-37.98896 -34.0741,-64.85123 -50.3009,-87.87746 -7.1643,-10.16626 -19.4616,-25.25216 -24.0967,-29.56089 l -2.623,-2.43836 -4.0537,3.93836 c -5.8029,5.63778 -17.3139,20.88678 -27.397,36.29367 -26.7466,40.86889 -55.034,96.98154 -108.7102,215.64468 -65.1794,144.09342 -90.2194,193.82972 -120.0421,238.43622 -36.79371,55.0332 -73.03842,81.0766 -122.6676,88.142 -13.34546,1.8999 -37.04393,0.7241 -51.59954,-2.56 -41.93559,-9.4618 -75.30189,-33.236 -113.05329,-80.5529 -13.35553,-16.7396 -26.58358,-35.6027 -55.02522,-78.4653 -23.0709,-34.7687 -44.60574,-65.2598 -47.24132,-66.8886 -1.28633,-0.795 -12.38657,14.5716 -21.95154,30.3886 -27.00957,44.664 -51.73341,98.9607 -95.85067,210.5 -10.65956,26.95 -20.53819,51.3199 -21.9525,54.1553 -10.89121,21.8346 -42.93856,35.4549 -75.95958,32.2831 z M 841.34466,573.68131 V 389.12307 l 2.25,1.42804 c 2.37256,1.50582 273.98404,158.52943 300.99284,174.0095 8.6585,4.96264 15.4085,9.33737 15,9.72162 -0.6717,0.63172 -310.66919,179.92307 -315.99284,182.75881 l -2.25,1.19851 z M 30.586261,231.41918 l 0.258396,-55.75 806.250003,-0.25062 806.25004,-0.25061 v 56.00061 56.00062 H 836.83626 30.327865 Z"
       id="path4" /></g></svg>
