<?xml version="1.0" encoding="UTF-8" standalone="no"?>
<svg
   width="1637.0000000000002"
   height="1637.0000000000002"
   version="1.1"
   id="svg1"
   sodipodi:docname="intentisty-reset.svg"
   inkscape:export-filename="fill-2d.png"
   inkscape:export-xdpi="96"
   inkscape:export-ydpi="96"
   xml:space="preserve"
   inkscape:version="1.3.2 (091e20e, 2023-11-25)"
   xmlns:inkscape="http://www.inkscape.org/namespaces/inkscape"
   xmlns:sodipodi="http://sodipodi.sourceforge.net/DTD/sodipodi-0.dtd"
   xmlns="http://www.w3.org/2000/svg"
   xmlns:svg="http://www.w3.org/2000/svg"><defs
     id="defs1"><rect
       x="253.29991"
       y="420.97731"
       width="492.3294"
       height="767.03494"
       id="rect12" /><inkscape:path-effect
       effect="bspline"
       id="path-effect4"
       is_visible="true"
       lpeversion="1.3"
       weight="33.333333"
       steps="2"
       helper_size="0"
       apply_no_weight="true"
       apply_with_weight="true"
       only_selected="false"
       uniform="false" /><inkscape:path-effect
       effect="fillet_chamfer"
       id="path-effect3"
       is_visible="true"
       lpeversion="1"
       nodesatellites_param="F,0,0,1,0,0,0,1 @ F,0,0,1,0,0,0,1 @ F,0,0,1,0,157.40711,0,1 @ F,0,0,1,0,114.00446,0,1 @ F,0,0,1,0,0,0,1"
       radius="0"
       unit="px"
       method="auto"
       mode="F"
       chamfer_steps="1"
       flexible="false"
       use_knot_distance="true"
       apply_no_radius="true"
       apply_with_radius="true"
       only_selected="false"
       hide_knots="false" /></defs><sodipodi:namedview
     id="namedview1"
     pagecolor="#ffffff"
     bordercolor="#000000"
     borderopacity="0.25"
     inkscape:showpageshadow="2"
     inkscape:pageopacity="0.0"
     inkscape:pagecheckerboard="0"
     inkscape:deskcolor="#d1d1d1"
     inkscape:zoom="0.28030014"
     inkscape:cx="1027.4701"
     inkscape:cy="1225.4721"
     inkscape:window-width="1688"
     inkscape:window-height="1212"
     inkscape:window-x="596"
     inkscape:window-y="42"
     inkscape:window-maximized="0"
     inkscape:current-layer="g1" /><g
     id="g1"
     transform="translate(-16.479866,-49.439597)"><title
       id="title1">Layer 1</title><text
       xml:space="preserve"
       style="font-weight:bold;font-size:38.6667px;font-family:Sans;-inkscape-font-specification:'Sans, Bold';text-align:center;text-anchor:middle;fill:none;stroke:#000000;stroke-width:25;stroke-linecap:round;stroke-dasharray:none;stroke-dashoffset:0"
       x="316.15863"
       y="463.28171"
       id="text9"><tspan
         sodipodi:role="line"
         id="tspan9"></tspan></text><text
       xml:space="preserve"
       style="font-weight:normal;font-size:106.667px;font-family:Sans;-inkscape-font-specification:Sans;text-align:center;text-anchor:middle;fill:none;stroke:#000000;stroke-width:25;stroke-linecap:round;stroke-dasharray:none;stroke-dashoffset:0;font-style:normal;font-stretch:normal;font-variant:normal"
       x="490.97125"
       y="937.77307"
       id="text13"><tspan
         sodipodi:role="line"
         id="tspan13"
         x="490.97125"
         y="937.77307" /></text><path
       style="fill:#000000"
       d="m 786.3132,1670.763 c -0.18334,-0.5356 -8.36158,-1.432 -18.17388,-1.9919 -9.8123,-0.5599 -20.6123,-1.4624 -24,-2.0055 -3.3877,-0.5432 -10.20946,-1.4938 -15.15946,-2.1126 -12.7657,-1.5957 -25.63428,-3.506 -35.5,-5.2698 -4.675,-0.8358 -11.65,-2.037 -15.5,-2.6695 -6.4931,-1.0666 -9.58275,-1.7378 -23,-4.9962 -2.75,-0.6679 -7.7,-1.8003 -11,-2.5165 -10.98736,-2.3846 -22.46519,-5.4076 -36,-9.4814 -3.85,-1.1588 -8.575,-2.4605 -10.5,-2.8927 -3.12708,-0.702 -39.72825,-12.8531 -45.28369,-15.0335 -1.21897,-0.4785 -4.69131,-1.836 -7.71631,-3.0168 -3.025,-1.1808 -6.4,-2.5342 -7.5,-3.0075 -1.1,-0.4734 -6.275,-2.5265 -11.5,-4.5625 -10.14177,-3.9519 -12.56815,-5.0015 -26.30913,-11.3804 -4.84502,-2.2492 -9.0376,-4.0894 -9.31684,-4.0894 -1.84612,0 -48.13531,-24.0797 -61.87403,-32.1869 -6.05,-3.5702 -11.675,-6.8062 -12.5,-7.1914 -3.87092,-1.8069 -36.78854,-23.1205 -47.56764,-30.7993 -12.14099,-8.6489 -29.04079,-21.0777 -33.52654,-24.6568 -2.5268,-2.0161 -8.87714,-7.0406 -14.11187,-11.1656 -5.23473,-4.125 -13.29235,-10.8134 -17.90582,-14.863 -4.61347,-4.0497 -11.3045,-9.8997 -14.86896,-13 -3.56446,-3.1004 -16.87206,-15.987 -29.57245,-28.637 -20.98221,-20.899 -27.29613,-27.6322 -45.85435,-48.8997 -11.74076,-13.4548 -33.89209,-42.0751 -46.09237,-59.553 -2.75,-3.9397 -5.45,-7.7116 -6,-8.3821 -1.97929,-2.4131 -5.5,-7.5949 -5.5,-8.0949 0,-0.2809 -2.18673,-3.7866 -4.8594,-7.7905 -10.0721,-15.0889 -22.42124,-35.0761 -24.24041,-39.2335 -0.49247,-1.1255 -1.45899,-2.9293 -2.1478,-4.0084 -3.57124,-5.5951 -6.52777,-11.0133 -14.73453,-27.0031 -4.94689,-9.6384 -9.426377,-18.3142 -9.954407,-19.2795 -1.23003,-2.2489 -8.06345,-17.3203 -8.06345,-17.7843 0,-0.1929 -1.96456,-4.5403 -4.36569,-9.6609 -2.40113,-5.1205 -4.7062,-10.4351 -5.12239,-11.8101 -0.41618,-1.375 -1.07832,-2.95 -1.47143,-3.5 -0.3931,-0.55 -1.77934,-3.925 -3.08053,-7.5 -1.30119,-3.575 -2.94671,-7.625 -3.65672,-9 -0.71,-1.375 -1.29369,-3.1975 -1.29708,-4.05 -0.003,-0.8525 -0.42465,-1.9775 -0.93614,-2.5 -1.08464,-1.108 -1.82248,-3.1601 -10.94839,-30.45 -3.77043,-11.275 -7.641458,-23.425 -8.602291,-27 -0.960833,-3.575 -2.349991,-8.525 -3.087018,-11 -0.737027,-2.475 -2.055329,-6.8942 -2.929561,-9.8205 -0.874232,-2.9263 -1.998294,-7.2013 -2.497915,-9.5 -2.1572,-9.9251 -3.25301,-14.476 -4.585676,-19.0443 -0.780542,-2.6757 -1.419166,-5.8816 -1.419166,-7.1243 0,-1.2427 -0.675,-4.1726 -1.5,-6.5109 -0.825,-2.3383 -1.5,-5.5649 -1.5,-7.1702 0,-1.6053 -0.627877,-5.7113 -1.395283,-9.1243 -3.040422,-13.52225 -5.011543,-25.83892 -7.554623,-47.2055 -0.589155,-4.95 -1.523656,-11.537 -2.076668,-14.63778 -0.553012,-3.10077 -1.442919,-13.64793 -1.977571,-23.43812 -0.534653,-9.79018 -1.427442,-18.25568 -1.983976,-18.81222 -1.358946,-1.35894 -1.396266,-93.31364 -0.03806,-93.77854 0.5356,-0.18334 1.431939,-8.36158 1.991863,-18.17388 0.559925,-9.8123 1.462425,-20.6123 2.005556,-24 0.543132,-3.3877 1.493769,-10.20946 2.112527,-15.15946 2.152626,-17.22077 4.561727,-32.54822 7.858781,-50 2.108405,-11.16009 4.743347,-23.03912 10.536195,-47.5 1.198624,-5.06131 4.300931,-16.10038 8.009346,-28.5 2.451176,-8.19586 15.28613,-46.56579 17.56154,-52.5 1.15991,-3.025 2.53991,-6.94624 3.06667,-8.71386 0.52677,-1.76763 1.39109,-3.48169 1.92073,-3.80902 0.52963,-0.32733 0.96297,-1.26828 0.96297,-2.091 0,-0.82271 0.8204,-3.38366 1.8231,-5.69098 1.0027,-2.30733 2.64792,-6.22014 3.65605,-8.69514 1.86252,-4.57259 5.22448,-12.26283 8.52485,-19.5 1.00327,-2.2 2.80942,-6.25 4.01366,-9 3.22527,-7.36519 23.131307,-46.75399 26.026717,-51.5 3.25421,-5.33413 16.95562,-29.1516 16.95562,-29.47433 0,-0.38198 10.29869,-16.23741 14.1178,-21.73517 1.03521,-1.49023 1.8822,-2.94836 1.8822,-3.24029 0,-0.90387 13.16307,-19.82468 21.94925,-31.55021 3.09095,-4.125 6.38899,-8.71731 7.32899,-10.20513 0.93999,-1.48783 2.53448,-3.51283 3.54332,-4.5 1.00883,-0.98718 6.15149,-7.41987 11.42812,-14.29487 5.27663,-6.875 10.96596,-13.9759 12.64294,-15.77979 1.67699,-1.80389 6.97142,-7.87889 11.7654,-13.5 16.65542,-19.52906 55.84219,-58.88681 72.40431,-72.72021 2.96321,-2.475 7.19891,-6.11201 9.41266,-8.08225 2.21376,-1.97024 5.55023,-4.89524 7.41438,-6.5 1.86414,-1.60476 3.88914,-3.36775 4.5,-3.91775 0.61085,-0.55 2.91063,-2.32621 5.11063,-3.94713 2.2,-1.62093 4.225,-3.22971 4.5,-3.57506 0.52884,-0.66414 30.35359,-23.21646 38,-28.73413 4.67743,-3.37524 32.24846,-21.99173 35.16441,-23.74368 2.42637,-1.4578 12.08473,-7.40617 13.83559,-8.52104 0.825,-0.52532 7.8,-4.58241 15.5,-9.01576 7.7,-4.43335 14.675,-8.46672 15.5,-8.96304 1.73489,-1.04371 28.09725,-14.62902 35.5,-18.29421 4.3515,-2.15448 9.09779,-4.35986 22,-10.22238 1.65,-0.7497 6.49737,-2.9652 10.77194,-4.9234 4.27456,-1.9581 8.17559,-3.5602 8.66896,-3.5602 0.49336,0 2.17099,-0.6391 3.72806,-1.4204 1.55707,-0.7812 4.85604,-2.167 7.33104,-3.0796 2.475,-0.9125 5.77397,-2.298303 7.33104,-3.079603 1.55707,-0.7812 3.35707,-1.4231 4,-1.4265 0.64293,0 2.50313,-0.7019 4.13377,-1.5522 1.63065,-0.8503 10.40565,-4.0189 19.5,-7.0414 9.09436,-3.0225 17.43519,-5.8674 18.53519,-6.3221 1.95119,-0.8064 10.4193,-3.4014 21.5,-6.5885 3.025,-0.8701 7.525,-2.185 10,-2.922 2.475,-0.737 7.425,-2.0958 11,-3.0195 3.575,-0.9238 8.78955,-2.325 11.58789,-3.1139 2.79835,-0.7888 6.00917,-1.4343 7.13517,-1.4343 1.126,0 4.23645,-0.6456 6.91211,-1.4348 6.12816,-1.8074 18.18998,-4.5365 24.80216,-5.6118 9.41937,-1.5318 22.03271,-3.6833 28.06267,-4.7868 5.95144,-1.0891 17.9057,-2.7253 41,-5.6117 49.84609,-6.2297 127.15391,-6.2297 177,0 23.09431,2.8864 35.04858,4.5226 40.99998,5.6117 6.03,1.1035 18.6433,3.255 28.0627,4.7868 6.6122,1.0753 18.67396,3.8044 24.80216,5.6118 2.6756,0.7892 5.7861,1.4348 6.9121,1.4348 1.126,0 4.3368,0.6455 7.1351,1.4343 2.7984,0.7889 8.0129,2.1901 11.5879,3.1139 3.575,0.9237 8.525,2.2825 11,3.0195 2.475,0.737 6.975,2.0519 10,2.922 11.1943,3.2197 19.5553,5.785 21.5,6.5964 1.1,0.4589 8.9122,3.1137 17.3605,5.8995 8.4482,2.7858 17.2232,5.8741 19.5,6.8629 5.0198,2.18 11.7504,4.867603 17.1395,6.843903 2.2,0.8067 5.274,2.106 6.8311,2.8872 1.557,0.7813 3.2347,1.4204 3.728,1.4204 0.4934,0 4.3944,1.6021 8.669,3.5602 4.2746,1.9582 9.1219,4.1737 10.7719,4.9234 12.9762,5.89613 17.6477,8.06865 22,10.23126 7.5328,3.74295 33.7875,17.27209 35.5,18.29327 0.825,0.49195 7.8,4.52175 15.5,8.9551 7.7,4.43335 14.675,8.49044 15.5,9.01576 1.7509,1.11487 11.4092,7.06324 13.8356,8.52104 2.916,1.75195 30.487,20.36844 35.1644,23.74368 7.6464,5.51767 37.4712,28.06999 38,28.73413 0.275,0.34535 2.2938,1.95413 4.4861,3.57506 2.1924,1.62092 5.2926,4.07213 6.8894,5.44713 3.135,2.69958 3.0059,2.58606 9.6683,8.5 2.4784,2.2 6.9307,6.025 9.8939,8.5 16.6691,13.92278 55.0646,52.50325 72.3715,72.72021 4.812,5.62111 10.1238,11.69611 11.804,13.5 2.5106,2.69533 19.4215,24.04636 27.3868,34.57733 3.7959,5.01856 14.0043,18.9852 15.5,21.2064 0.825,1.22514 2.2104,3.18795 3.0787,4.3618 3.8514,5.20696 10.9213,15.67477 10.9213,16.17023 0,0.29976 0.847,1.7643 1.8822,3.25453 3.8191,5.49776 14.1178,21.35319 14.1178,21.73517 0,0.32273 13.7014,24.1402 16.9556,29.47433 2.872,4.70759 22.7705,44.07141 26.0334,51.5 1.2079,2.75 3.32,7.475 4.6935,10.5 3.7238,8.20086 5.8134,12.99563 7.8447,18 1.0047,2.475 2.647,6.38781 3.6497,8.69514 1.0027,2.30732 1.8231,4.80482 1.8231,5.55 0,0.74517 0.3886,1.78236 0.8635,2.30486 0.475,0.5225 1.3423,2.3 1.9275,3.95 0.5852,1.65 2.01,5.475 3.1661,8.5 2.4789,6.4855 15.4172,45.283 17.5079,52.5 0.7967,2.75 2.1524,7.475 3.0127,10.5 0.8604,3.025 2.2194,7.75 3.0201,10.5 0.8007,2.75 2.3924,9.05 3.5371,14 1.1447,4.95 2.674,11.475 3.3984,14.5 5.5941,23.36117 10.4774,51.62869 14.0584,81.37941 0.8526,7.08368 1.7442,13.19322 1.9812,13.57677 0.2371,0.38355 0.9133,9.21281 1.5027,19.62059 0.5894,10.40778 1.511,19.07323 2.048,19.25657 1.3387,0.457 1.3318,92.87955 -0.01,93.33333 -0.5462,0.18516 -1.428,8.49486 -1.9836,18.69392 -0.5501,10.09832 -1.4529,20.89832 -2.0061,24 -0.5532,3.10168 -1.4878,9.68941 -2.077,14.63941 -2.5431,21.36658 -4.5142,33.68325 -7.5546,47.2055 -0.7674,3.413 -1.3953,7.4235 -1.3953,8.9121 0,1.4886 -0.6459,4.9962 -1.4354,7.7945 -0.7896,2.7983 -1.9346,7.3379 -2.5447,10.0879 -4.5608,20.5594 -7.3116,31.3002 -12.037,47 -1.1588,3.85 -2.4627,8.575 -2.8975,10.5 -0.4348,1.925 -3.0924,10.25 -5.9058,18.5 -2.8134,8.25 -5.6435,16.575 -6.2892,18.5 -2.0079,5.9861 -4.0196,11.3765 -5.4115,14.5 -0.7352,1.65 -2.9683,7.275 -4.9623,12.5 -1.9941,5.225 -4.276,10.918 -5.0711,12.6511 -0.795,1.7332 -1.4455,3.412 -1.4455,3.7308 0,0.3188 -1.7337,4.3008 -3.8526,8.8489 -2.119,4.5481 -5.1296,11.1942 -6.6904,14.7692 -3.382,7.7469 -24.1919,48.9489 -27.5806,54.6075 -1.307,2.1825 -2.94,4.8512 -3.6288,5.9304 -0.6888,1.0791 -1.6553,2.8829 -2.1478,4.0084 -1.7892,4.0891 -14.0189,23.9029 -24.0432,38.9537 -2.5642,3.85 -4.9688,7.675 -5.3435,8.5 -0.3747,0.825 -3.1507,4.875 -6.1688,9 -3.0182,4.125 -7.1591,9.975 -9.202,13 -6.4412,9.5375 -33.5017,44.1916 -40.2152,51.5 -2.0209,2.2 -7.7112,8.725 -12.6451,14.5 -4.9339,5.775 -19.0983,20.6271 -31.4764,33.0046 -24.97,24.9691 -31.5501,31.2045 -44.0056,41.7009 -4.675,3.9397 -9.887,8.4302 -11.5823,9.9788 -1.6952,1.5486 -7.7029,6.4157 -13.3503,10.8157 -5.6475,4.4 -13.0149,10.1874 -16.3721,12.8608 -3.3571,2.6735 -7.2495,5.5806 -8.6496,6.4603 -1.4001,0.8797 -5.0207,3.462 -8.0457,5.7386 -10.4122,7.8358 -19.5166,14.0434 -39.5,26.9318 -13.8289,8.9191 -17.461,11.1785 -19.5,12.1302 -0.825,0.3852 -6.45,3.6212 -12.5,7.1914 -13.7387,8.1072 -60.0279,32.1869 -61.874,32.1869 -0.2792,0 -4.4718,1.8402 -9.3168,4.0894 -13.741,6.3789 -16.1674,7.4285 -26.3092,11.3804 -5.225,2.036 -10.4,4.0891 -11.5,4.5625 -1.1,0.4733 -4.475,1.8267 -7.5,3.0075 -3.025,1.1808 -6.5753,2.5739 -7.8896,3.0957 -5.0393,2.0009 -41.7814,14.1628 -45.1104,14.9319 -1.925,0.4447 -6.65,1.7566 -10.5,2.9154 -13.5348,4.0738 -25.0126,7.0968 -36,9.4814 -3.3,0.7162 -8.25,1.8486 -11,2.5165 -13.41716,3.2584 -16.50686,3.9296 -22.99996,4.9962 -3.85,0.6325 -10.825,1.8337 -15.5,2.6695 -9.8657,1.7638 -22.73428,3.6741 -35.49998,5.2698 -4.95,0.6188 -11.77175,1.5694 -15.15945,2.1126 -3.3877,0.5431 -14.1877,1.4456 -24,2.0055 -9.8123,0.5599 -17.99055,1.4563 -18.17388,1.9919 -0.20988,0.6131 -17.67871,0.9738 -47.16667,0.9738 -29.48796,0 -46.95679,-0.3607 -47.16666,-0.9738 z m 106.16666,-102.8647 c 7.975,-0.6831 18.57589,-1.8989 23.55754,-2.7018 4.98164,-0.8028 10.71,-1.4597 12.72969,-1.4597 2.01969,0 7.1688,-0.6394 11.44247,-1.4209 10.27871,-1.8797 19.02078,-3.4363 28.77028,-5.1229 4.4,-0.7612 11.0375,-2.0753 14.75,-2.9201 3.7125,-0.8449 9.5625,-2.1554 13,-2.9124 8.99076,-1.9799 15.60176,-3.6107 20.74996,-5.1187 2.475,-0.725 6.975,-2.0021 10,-2.8381 7.1998,-1.9896 45.424,-14.3129 50.25,-16.2003 2.0625,-0.8066 5.4375,-2.1056 7.5,-2.8866 16.5971,-6.2846 25.9472,-10.0508 33.75,-13.5945 2.2,-0.9991 7.15,-3.2273 11,-4.9515 9.8733,-4.4216 44.0941,-21.7526 48.7296,-24.6789 2.1272,-1.3429 4.8583,-2.871 6.069,-3.3959 1.2108,-0.525 2.8764,-1.3951 3.7014,-1.9337 0.825,-0.5386 5.4156,-3.2441 10.2012,-6.0123 4.7857,-2.7681 11.6526,-7.0535 15.2597,-9.5231 3.6072,-2.4695 6.77,-4.4901 7.0284,-4.4901 0.4924,0 14.0809,-9.1183 26.0107,-17.4541 19.4758,-13.6083 54.9227,-42.3817 71.455,-58.0021 14.9041,-14.082 42.4022,-42.2587 49.8146,-51.0438 4.1765,-4.95 8.9136,-10.35 10.5269,-12 3.7305,-3.8154 24.2809,-30.0932 32.3682,-41.3893 3.3906,-4.7359 8.2531,-11.5357 10.8055,-15.1107 3.8322,-5.3676 12.993,-19.2422 18.2209,-27.5966 3.6545,-5.84 15.0941,-25.1272 15.6605,-26.4034 0.3661,-0.825 1.6326,-3.075 2.8144,-5 2.827,-4.6046 21.5531,-41.6869 25.2494,-50 1.5896,-3.575 4.3964,-9.7724 6.2374,-13.7719 1.841,-3.9996 3.3472,-7.8511 3.3472,-8.5589 0,-0.7078 0.6607,-2.1604 1.4682,-3.2281 0.8075,-1.0676 1.4853,-2.6161 1.5062,-3.4411 0.021,-0.825 0.6306,-2.6357 1.3551,-4.0237 0.7244,-1.388 1.8093,-3.863 2.411,-5.5 6.7304,-18.3123 8.5501,-23.4133 9.2667,-25.9763 0.4613,-1.65 1.9502,-6.15 3.3087,-10 1.3584,-3.85 3.4373,-10.375 4.6197,-14.5 4.6098,-16.0828 5.3522,-18.5764 6.1874,-20.7828 0.4752,-1.2555 1.5261,-5.3055 2.3353,-9 1.4953,-6.8268 3.3149,-14.8036 6.1508,-26.9636 0.8663,-3.7145 2.1709,-10.1286 2.8992,-14.2536 3.7796,-21.40927 4.5571,-26.18866 5.5314,-34 0.5831,-4.675 1.7128,-12.57589 2.5103,-17.55753 0.7975,-4.98165 1.45,-11.61686 1.45,-14.74492 0,-3.12806 0.7004,-12.1027 1.5563,-19.94365 1.2138,-11.11842 1.4754,-22.61989 1.1888,-52.25508 -0.3593,-37.14133 -1.3302,-54.7545 -4.2446,-76.99882 -0.7927,-6.05 -1.9159,-14.6 -2.496,-19 -1.6095,-12.2074 -6.1175,-38.05612 -8.4583,-48.5 -0.8013,-3.575 -1.9604,-8.75 -2.5759,-11.5 -1.5723,-7.02576 -3.8415,-16.12625 -5.4855,-22 -3.2042,-11.44766 -5.7754,-20.25691 -7.0882,-24.28494 -0.7681,-2.35672 -1.3966,-5.07922 -1.3966,-6.05 0,-0.97078 -0.3931,-2.19256 -0.8735,-2.71506 -0.4805,-0.5225 -2.1207,-5 -3.645,-9.95 -1.5242,-4.95 -3.1561,-9.4275 -3.6264,-9.95 -0.4703,-0.5225 -0.8578,-1.8725 -0.8612,-3 0,-1.1275 -0.6784,-3.33893 -1.5,-4.9143 -0.8216,-1.57537 -1.4939,-3.28756 -1.4939,-3.80487 0,-0.5173 -0.8204,-2.82837 -1.8231,-5.13569 -1.7472,-4.02058 -3.2172,-7.66591 -6.833,-16.94514 -0.9108,-2.3375 -2.9358,-7.0637 -4.5,-10.50267 -1.5641,-3.43896 -2.8439,-6.47517 -2.8439,-6.74713 0,-2.60613 -25.0186,-51.88335 -34.0167,-67.0002 -2.6191,-4.4 -5.6069,-9.575 -6.6396,-11.5 -3.4821,-6.49103 -23.2697,-36.71208 -31.3437,-47.87048 -11.8813,-16.42028 -31.4372,-41.37876 -38.1029,-48.62952 -2.0225,-2.2 -6.3018,-7.15 -9.5096,-11 -15.5428,-18.65463 -65.7729,-66.44627 -86.8875,-82.66951 -3.3,-2.53553 -7.0813,-5.55966 -8.403,-6.72027 -1.3216,-1.16062 -2.6716,-2.11885 -3,-2.1294 -0.3283,-0.0106 -2.397,-1.61963 -4.597,-3.57573 -2.2,-1.95609 -6.25,-5.05755 -9,-6.89211 -2.75,-1.83457 -8.15,-5.60229 -12,-8.37272 -9.3996,-6.76389 -12.7523,-9.0557 -21,-14.35482 -3.85,-2.47362 -10.15,-6.52015 -14,-8.99227 -7.8183,-5.02026 -14.7416,-9.1463 -18.5,-11.02536 -1.375,-0.68746 -6.775,-3.73612 -12,-6.77482 -5.225,-3.03869 -16.925,-9.16758 -26,-13.61975 -16.2175,-7.95626 -18.4654,-9.01661 -32.5,-15.33011 -3.85,-1.73193 -7.9,-3.55498 -9,-4.05122 -3.6228,-1.63438 -9.9566,-4.17611 -12.5,-5.01626 -1.375,-0.4542 -4.975,-1.80169 -8,-2.99442 -7.9521,-3.13544 -32.9786,-12.00143 -36.5,-12.93063 -1.65,-0.4354 -4.125,-1.24165 -5.5,-1.79167 -1.375,-0.55003 -4.975,-1.70619 -8,-2.56925 -3.025,-0.86305 -7.75,-2.22122 -10.5,-3.01815 -13.6579,-3.95795 -19.6302,-5.55762 -26.5,-7.09795 -4.12496,-0.9249 -9.97496,-2.29079 -12.99996,-3.0353 -20.922,-5.14932 -54.84893,-10.63665 -83.49998,-13.50528 -31.41253,-3.14512 -39.48191,-3.533 -73.5,-3.533 -21.66793,0 -41.98583,0.51441 -50,1.26589 -21.42474,2.00898 -33.68256,3.29298 -45.5,4.76612 -10.0545,1.25337 -15.47495,2.10951 -34.5,5.44915 -8.83917,1.55162 -20.35849,3.92252 -27,5.55712 -3.025,0.74451 -8.875,2.10463 -13,3.02248 -7.41765,1.65051 -9.35798,2.16555 -24,6.3706 -16.77441,4.81746 -18.60009,5.36756 -21,6.32757 -1.375,0.55002 -3.85,1.35627 -5.5,1.79167 -3.52135,0.9292 -28.54788,9.79519 -36.5,12.93063 -3.025,1.19273 -6.625,2.54022 -8,2.99442 -2.5434,0.84015 -8.87713,3.38188 -12.5,5.01626 -1.1,0.49624 -5.15,2.31929 -9,4.05122 -14.03456,6.3135 -16.28252,7.37385 -32.5,15.33011 -9.075,4.45217 -20.92936,10.68954 -26.34303,13.86081 -5.41367,3.17127 -10.0798,5.76595 -10.36919,5.76595 -0.64347,0 -10.33925,5.79231 -19.78778,11.82131 -21.69173,13.84128 -23.54517,15.07614 -35,23.31895 -3.85,2.77043 -9.25,6.53815 -12,8.37272 -2.75,1.83456 -6.8,4.93602 -9,6.89211 -2.2,1.9561 -4.26864,3.56518 -4.59699,3.57573 -0.32834,0.0105 -1.67834,0.96878 -3,2.1294 -1.32165,1.16061 -5.10301,4.18474 -8.40301,6.72027 -21.11458,16.22324 -71.34466,64.01488 -86.8875,82.66951 -3.20778,3.85 -7.48709,8.8 -9.50959,11 -10.69048,11.62875 -37.74203,47.2725 -50.09018,66 -2.90118,4.4 -6.11589,9.21928 -7.1438,10.70951 -1.02791,1.49023 -1.86893,2.92429 -1.86893,3.18679 0,0.26251 -2.025,3.4351 -4.5,7.05021 -2.475,3.61511 -4.5,6.78795 -4.5,7.05076 0,0.26281 -2.86163,5.32093 -6.35919,11.24028 -8.76755,14.83843 -11.22231,19.38932 -20.36915,37.76245 -8.05985,16.18973 -9.58678,19.39627 -15.23817,32 -5.00145,11.15426 -5.69421,12.76865 -7.29487,17 -2.35369,6.22197 -4.92133,12.6063 -6.91552,17.19514 -1.0027,2.30732 -1.8231,4.80482 -1.8231,5.55 0,0.74517 -0.38788,1.78236 -0.86196,2.30486 -0.47407,0.5225 -2.78619,7.025 -5.13804,14.45 -2.35184,7.425 -4.66396,13.9275 -5.13804,14.45 -0.47408,0.5225 -0.86196,1.74428 -0.86196,2.71506 0,0.97078 -0.62846,3.69328 -1.39657,6.05 -1.31284,4.02803 -3.88405,12.83728 -7.08819,24.28494 -1.64403,5.87375 -3.91317,14.97424 -5.48553,22 -0.61545,2.75 -1.77459,7.925 -2.57587,11.5 -2.18143,9.73273 -6.53895,34.48925 -8.36072,47.5 -5.31282,37.94323 -6.44711,54.01924 -6.84414,97 -0.27239,29.48835 -0.004,41.19301 1.2,52.25508 0.85306,7.8403 1.55102,16.81441 1.55102,19.94247 0,3.12806 0.65252,9.76327 1.45004,14.74492 0.79753,4.98164 1.92714,12.88253 2.51026,17.55753 1.55931,12.5014 5.99829,37.97243 8.36524,48 2.22108,9.4096 4.53166,19.5263 6.2162,27.2172 0.8092,3.6945 1.8601,7.7445 2.33533,9 0.83514,2.2064 1.57754,4.7 6.18739,20.7828 1.18236,4.125 3.26122,10.65 4.61968,14.5 1.35847,3.85 2.84738,8.35 3.3087,10 0.71658,2.563 2.53629,7.664 9.26671,25.9763 0.60164,1.637 1.6866,4.112 2.41102,5.5 0.72441,1.388 1.3342,3.1987 1.35508,4.0237 0.0209,0.825 0.69865,2.3735 1.50616,3.4411 0.8075,1.0677 1.46819,2.5203 1.46819,3.2281 0,0.7078 1.59934,4.7843 3.55409,9.0589 1.95475,4.2745 3.93776,8.6719 4.4067,9.7719 2.10922,4.9477 25.3744,51.3153 27.09477,54 1.05733,1.65 2.22304,3.675 2.59047,4.5 0.56914,1.2779 12.03077,20.5991 15.66289,26.4034 5.22789,8.3544 14.38874,22.229 18.22094,27.5966 2.55238,3.575 7.41482,10.3748 10.80542,15.1107 8.08735,11.2961 28.63777,37.5739 32.36827,41.3893 1.61329,1.65 6.34848,7.05 10.52264,12 7.43857,8.8212 35.04184,37.1086 49.80933,51.0438 16.62681,15.6898 52.01954,44.4153 71.46448,58.0021 11.92979,8.3358 25.51831,17.4541 26.01077,17.4541 0.25839,0 3.42113,2.0206 7.02832,4.4901 3.60718,2.4696 10.47405,6.755 15.25971,9.5231 4.78566,2.7682 9.3762,5.4737 10.2012,6.0123 0.825,0.5386 2.49063,1.4087 3.70139,1.9337 1.21076,0.5249 3.94182,2.053 6.06903,3.3959 4.63555,2.9263 38.85633,20.2573 48.72958,24.6789 3.85,1.7242 8.8,3.9524 11,4.9515 7.78859,3.5372 19.58564,8.2849 33.5,13.4818 1.925,0.719 5.3,2.0179 7.5,2.8865 4.91624,1.9411 42.93862,14.2235 50.5,16.3131 3.025,0.836 7.525,2.1131 10,2.8381 5.24373,1.5359 11.89044,3.1709 21,5.1656 3.575,0.7829 9.425,2.0935 13,2.9125 3.575,0.819 10.1,2.1049 14.5,2.8575 4.4,0.7526 10.475,1.8351 13.5,2.4054 17.57005,3.3129 37.1903,5.8894 55,7.2225 7.425,0.5558 16.2,1.3961 19.5,1.8674 8.83445,1.2617 89.58605,0.6745 106.5,-0.7744 z m -58.49762,-101.309 c -0.28245,-0.7439 -0.39853,-275.4025 -0.25796,-610.3525 l 0.25558,-609 16,0.1868 c 22.96629,0.26812 42.66155,1.90326 70.5,5.85308 30.45995,4.32176 42.19758,6.21004 47.49998,7.64156 2.2,0.59394 6.475,1.65595 9.5,2.36002 5.2988,1.23329 10.7042,2.56592 23.49996,5.79359 3.3,0.83241 8.925,2.21195 12.5,3.06565 7.4459,1.77804 13.16,3.56927 21,6.583 3.025,1.16281 8.65,3.20106 12.5,4.52945 18.678,6.44456 33.4004,11.87573 36.1848,13.34874 0.9984,0.52815 6.0902,2.98326 11.3152,5.45579 35.577,16.83546 40.1431,19.30729 79.8062,43.20276 7.5249,4.53341 25.772,17.7537 39.0657,28.30363 1.8545,1.47176 5.2295,3.93888 7.5,5.48249 2.2705,1.54361 8.6281,6.80041 14.1281,11.68179 25.6626,22.77611 37.053,33.7618 49.7808,48.01165 6.6319,7.425 15.2208,17.02744 19.0865,21.33875 6.7789,7.56042 11.4891,13.65982 22.1327,28.66066 2.75,3.87577 5.675,7.89448 6.5,8.93045 0.825,1.03598 2.175,2.87645 3,4.08994 0.825,1.21349 3.525,4.98425 6,8.37947 5.1576,7.07515 5.9082,8.2599 9.5669,15.10073 1.4708,2.75 3.9699,6.93506 5.5537,9.30014 1.5837,2.36507 2.8794,4.47173 2.8794,4.68146 0,0.20973 3.343,6.02862 7.4288,12.93087 7.8093,13.19241 11.6608,20.88341 23.5805,47.08753 1.0008,2.2 3.4933,7.6 5.539,12 3.3126,7.12489 12.184,31.05787 14.4565,39 0.9355,3.2698 3.5627,10.81782 4.8727,14 1.9895,4.83245 3.4497,9.65369 5.7546,19 1.3563,5.5 3.119,12.18918 3.917,14.86484 0.798,2.67566 1.4509,5.56111 1.4509,6.41211 0,0.851 0.6358,3.83682 1.4128,6.63516 4.8499,17.46572 6.3403,25.59681 11.0141,60.08789 0.8198,6.05 1.9591,13.42392 2.5318,16.38649 0.5727,2.96257 1.0382,8.36257 1.0344,12 0,3.63743 0.7405,17.41351 1.654,30.61351 1.4396,20.80192 1.495,26.86495 0.4153,45.5 -0.685,11.825 -1.5973,28.25 -2.0272,36.5 -0.43,8.25 -1.2859,17.7 -1.9022,21 -1.2577,6.73479 -2.6152,16.00995 -4.6103,31.5 -1.4358,11.14762 -2.7129,18.07677 -4.9762,27 -2.1485,8.4702 -5.472,22.005 -8.1034,33 -2.8782,12.0263 -3.6523,14.7649 -6.077,21.5 -1.3861,3.85 -2.9076,8.35 -3.3811,10 -1.195,4.1643 -6.8349,20.5688 -7.9073,23 -0.4853,1.1 -1.8835,4.925 -3.1073,8.5 -2.3131,6.7575 -3.3299,9.1653 -9.5022,22.5 -2.0366,4.4 -4.8179,10.475 -6.1805,13.5 -6.0512,13.4331 -7.6674,16.9009 -10.8228,23.222 -5.7001,11.4189 -31.952,54.7849 -38.911,64.278 -3.6287,4.95 -8.5416,11.7 -10.9176,15 -11.5687,16.0674 -16.1586,21.8805 -25.6612,32.5 -5.6598,6.325 -13.2571,14.8323 -16.8828,18.9052 -3.6258,4.0728 -8.4146,9.2478 -10.6419,11.5 -5.1237,5.1809 -32.3422,30.479 -40.8365,37.9553 -8.9573,7.8838 -53.9265,40.8691 -58.6139,42.9938 -0.825,0.3739 -8.7,5.1578 -17.5,10.6308 -14.7092,9.1481 -32.9168,18.6897 -64,33.5391 -6.6,3.1531 -13.125,6.0913 -14.5,6.5294 -1.375,0.4381 -4.975,1.7523 -8,2.9204 -3.025,1.1682 -8.65,3.2059 -12.5,4.5283 -12.5215,4.301 -15.9671,5.537 -18,6.4568 -4.2381,1.9178 -21.1118,7.3613 -26.9143,8.6827 -3.3471,0.7622 -8.5607,2.0129 -11.5857,2.7792 -3.02496,0.7663 -8.64996,2.1498 -12.49996,3.0743 -3.85,0.9245 -9.475,2.2947 -12.5,3.045 -14.6846,3.6419 -29.63741,6.46 -34.27028,6.4589 -1.77634,-4e-4 -6.8297,0.645 -11.2297,1.4343 -23.45075,4.2068 -47.56008,6.5287 -75.24203,7.2466 -16.45477,0.4268 -20.33813,0.2719 -20.75559,-0.8276 z M 240.47986,852.18592 V 474.63503 l 149.75,0.40164 c 158.22605,0.42438 158.21845,0.42417 187.75,5.16046 34.25593,5.49399 59.30314,16.24185 86.58525,37.15408 32.89488,25.21453 57.79484,64.98899 67.29962,107.50241 4.87292,21.79587 6.03887,34.14692 6.03062,63.88318 -0.0106,38.14354 -3.42378,64.40373 -12.08674,92.9922 -14.13132,46.6345 -43.20406,86.82076 -85.64147,118.37927 -7.23507,5.38036 -10.67443,8.55168 -10.39479,9.5847 0.22986,0.84911 44.14247,72.35347 97.5836,158.89863 53.44112,86.5451 97.62323,158.2097 98.18248,159.2546 0.9963,1.8616 -1.06284,1.8948 -102.12426,1.6453 l -103.14107,-0.2547 -78.66936,-133.5 -78.66937,-133.5 -27.72725,-0.26582 -27.72726,-0.26581 v 134.01583 134.0158 h -83.5 -83.5 z m 223.61939,-46.43384 c 32.14212,-1.50229 49.838,-4.93243 62.17646,-12.05219 7.37298,-4.2545 19.36271,-15.92842 24.87446,-24.21927 9.99485,-15.03439 13.65258,-30.18432 13.69998,-56.74382 0.0332,-18.60435 -0.92877,-25.87759 -4.94641,-37.39825 -3.16674,-9.08067 -7.29011,-15.33665 -14.52086,-22.03105 -11.48478,-10.63288 -26.00882,-16.4299 -46.53992,-18.57562 -5.9747,-0.62442 -28.9756,-1.38613 -51.1131,-1.69269 l -40.25,-0.55738 v 87.1275 87.12749 l 18.25,-0.0222 c 10.0375,-0.0122 27.30373,-0.44534 38.36939,-0.96254 z"
       id="path16" /></g></svg>
