<?xml version="1.0" encoding="UTF-8" standalone="no"?>
<svg
   width="1637"
   height="1637"
   version="1.1"
   id="svg1"
   sodipodi:docname="shape-interpolation.svg"
   inkscape:version="1.3.2 (091e20e, 2023-11-25)"
   xmlns:inkscape="http://www.inkscape.org/namespaces/inkscape"
   xmlns:sodipodi="http://sodipodi.sourceforge.net/DTD/sodipodi-0.dtd"
   xmlns="http://www.w3.org/2000/svg"
   xmlns:svg="http://www.w3.org/2000/svg">
  <defs
     id="defs1" />
  <sodipodi:namedview
     id="namedview1"
     pagecolor="#ffffff"
     bordercolor="#000000"
     borderopacity="0.25"
     inkscape:showpageshadow="2"
     inkscape:pageopacity="0.0"
     inkscape:pagecheckerboard="0"
     inkscape:deskcolor="#d1d1d1"
     inkscape:zoom="0.32631295"
     inkscape:cx="821.29747"
     inkscape:cy="556.21452"
     inkscape:window-width="1392"
     inkscape:window-height="1212"
     inkscape:window-x="433"
     inkscape:window-y="51"
     inkscape:window-maximized="0"
     inkscape:current-layer="g1" />
  <g
     id="g1"
     transform="matrix(0.990561,0,0,0.9626827,-30.611188,-822.55892)">
    <path
       style="fill:#000000"
       d="m 1181.8961,2481.6017 c -9.7167,-1.3603 -19.3063,-2.2224 -21.3103,-1.9159 -3.4659,0.5301 -22.7935,-1.7365 -62.9853,-7.3866 -9.9944,-1.405 -30.4373,-4.2071 -45.4288,-6.2269 -22.673,-3.0548 -131.00982,-17.678 -234.71551,-31.6817 -13.04816,-1.7619 -26.90394,-3.6269 -30.79063,-4.1443 -3.88668,-0.5175 -15.69817,-2.1088 -26.24775,-3.5363 -10.54958,-1.4275 -52.34407,-7.0686 -92.87666,-12.5357 -100.84816,-13.6028 -132.11714,-17.8306 -153.95316,-20.8158 -10.27195,-1.4042 -110.21531,-14.9401 -222.09635,-30.0796 -253.108612,-34.2501 -250.805522,-33.9357 -251.163672,-34.284 -0.37389,-0.3635 22.75594,-69.9973 113.699002,-342.2979 182.30892,-545.8669 235.58811,-704.8352 236.68616,-706.1966 0.64952,-0.8053 3.91695,-9.5772 7.26096,-19.493 l 6.08002,-18.029 51.48597,-57.9134 C 608.51783,1012.9898 663.02395,952.12281 672.78045,942.47281 l 3.94535,-3.90228 11.56014,2.54977 c 109.30779,24.1095 663.09826,150.7389 664.20386,151.8764 2.0318,2.0907 16.8481,47.2734 256.6141,782.5527 21.704,66.5587 45.7706,139.9474 53.4814,163.0858 7.7107,23.1385 14.1883,43.012 14.3947,44.1634 0.2064,1.1515 2.2379,8.1541 4.5145,15.5616 3.9252,12.7715 4.0483,13.5577 2.3812,15.2019 -2.871,2.8316 -406.2377,315.0573 -442.9221,342.8435 -23.8926,18.0972 -37.9069,27.876 -39.7895,27.7643 -0.8807,-0.052 -9.5512,-1.208 -19.268,-2.5682 z m -58.5526,-92.4844 c 0,-2.6551 -78.8804,-719.2768 -99.4002,-903.0425 -4.1748,-37.3874 -7.9356,-68.3041 -8.3574,-68.7038 -0.4217,-0.3997 -42.33412,-8.2483 -93.13872,-17.4413 -95.02705,-17.195 -408.3394,-73.6718 -435.97467,-78.5875 -8.52825,-1.517 -15.84966,-2.3653 -16.26981,-1.8851 -1.54473,1.7654 -31.83089,91.4226 -125.38862,371.1923 -165.73619,495.6081 -191.1461,572.3588 -189.49113,572.3588 0.5334,0 30.8217,3.955 67.30734,8.7888 36.48564,4.8338 93.5948,12.3301 126.90926,16.6584 33.31445,4.3283 83.05899,10.8792 110.54341,14.5577 27.48443,3.6784 87.90473,11.6197 134.26735,17.6473 46.36261,6.0277 91.10998,11.8726 99.43859,12.9888 46.54582,6.238 127.59272,16.8771 205.43908,26.9682 48.5836,6.2979 108.09542,14.0533 132.24832,17.2343 93.3514,12.2947 91.8672,12.1127 91.8672,11.2656 z m 196.3533,-108.0636 c 56.0794,-43.4193 137.8512,-106.6889 181.7152,-140.5991 43.8641,-33.9102 79.9137,-61.7813 80.1103,-61.9357 0.5525,-0.4338 -91.3012,-282.7461 -210.3534,-646.5217 -28.7007,-87.6976 -56.3777,-172.305 -61.5045,-188.0163 -5.1268,-15.7113 -9.5612,-28.566 -9.8544,-28.566 -0.2931,0 -43.5899,42.07 -96.2151,93.4888 -52.6253,51.4188 -96.0718,93.6446 -96.5478,93.835 -0.4761,0.1904 -0.8656,1.5615 -0.8656,3.0469 0,1.4854 12.7124,117.9568 28.2498,258.8254 43.5603,394.9364 76.7412,697.1029 76.7412,698.8554 0,1.2309 0.7366,1.0197 3.2809,-0.9407 1.8046,-1.3903 49.1641,-38.0528 105.2434,-81.472 z m -259.248,-959.9373 c 109.0569,-105.9005 176.079,-171.9606 175.2497,-172.7344 -0.4412,-0.4117 -27.6051,-6.8705 -60.3643,-14.353 -173.3451,-39.5935 -397.13213,-90.5032 -453.68863,-103.2104 -5.43481,-1.2211 -5.46882,-1.213 -8.07623,1.9243 -1.44015,1.7328 -18.97516,21.3393 -38.96669,43.57 -32.05378,35.644 -138.08553,154.5707 -148.33052,166.3696 -2.10832,2.4281 -3.5988,4.4147 -3.31217,4.4147 0.28664,0 70.18628,12.5903 155.33254,27.9783 132.59323,23.963 241.04868,43.4581 335.0123,60.2194 12.4929,2.2285 23.9405,4.0969 25.4391,4.1521 2.2023,0.081 6.364,-3.4336 21.7049,-18.3306 z"
       id="path3"
       sodipodi:nodetypes="sssssssssssssscsscssssssssssssssssssssssssssssssssssssssscssssssscssc" />
  </g>
</svg>
