<?xml version="1.0" encoding="UTF-8" standalone="no"?>
<!-- Created with Inkscape (http://www.inkscape.org/) -->

<svg
   xmlns:dc="http://purl.org/dc/elements/1.1/"
   xmlns:cc="http://creativecommons.org/ns#"
   xmlns:rdf="http://www.w3.org/1999/02/22-rdf-syntax-ns#"
   xmlns:svg="http://www.w3.org/2000/svg"
   xmlns="http://www.w3.org/2000/svg"
   xmlns:sodipodi="http://sodipodi.sourceforge.net/DTD/sodipodi-0.dtd"
   xmlns:inkscape="http://www.inkscape.org/namespaces/inkscape"
   width="82.403999mm"
   height="82.403999mm"
   viewBox="0 0 82.403999 82.403999"
   version="1.1"
   id="svg8"
   inkscape:version="0.92.4 5da689c313, 2019-01-14"
   sodipodi:docname="icon-draft.svg"
   inkscape:export-filename="/home/saalfeld/workspace/paintera/img/logo-2-256.png"
   inkscape:export-xdpi="78.910004"
   inkscape:export-ydpi="78.910004">
  <defs
     id="defs2" />
  <sodipodi:namedview
     id="base"
     pagecolor="#ff00ff"
     bordercolor="#666666"
     borderopacity="1.0"
     inkscape:pageopacity="0"
     inkscape:pageshadow="2"
     inkscape:zoom="5.6"
     inkscape:cx="127.3627"
     inkscape:cy="157.58496"
     inkscape:document-units="mm"
     inkscape:current-layer="layer1"
     showgrid="false"
     showguides="true"
     inkscape:guide-bbox="true"
     inkscape:snap-bbox="true"
     inkscape:object-paths="true"
     inkscape:snap-intersection-paths="true"
     inkscape:object-nodes="true"
     inkscape:snap-smooth-nodes="true"
     inkscape:snap-global="false"
     inkscape:window-width="3840"
     inkscape:window-height="1999"
     inkscape:window-x="0"
     inkscape:window-y="0"
     inkscape:window-maximized="1"
     fit-margin-top="0"
     fit-margin-left="0"
     fit-margin-right="0"
     fit-margin-bottom="0">
    <sodipodi:guide
       position="41.148428,36.390362"
       orientation="1,0"
       id="guide821"
       inkscape:locked="false" />
  </sodipodi:namedview>
  <metadata
     id="metadata5">
    <rdf:RDF>
      <cc:Work
         rdf:about="">
        <dc:format>image/svg+xml</dc:format>
        <dc:type
           rdf:resource="http://purl.org/dc/dcmitype/StillImage" />
        <dc:title />
      </cc:Work>
    </rdf:RDF>
  </metadata>
  <g
     inkscape:groupmode="layer"
     id="layer2"
     inkscape:label="background">
    <ellipse
       transform="translate(-61.094133,-39.697673)"
       ry="40.685364"
       rx="40.684006"
       cy="81.322853"
       cx="102.23946"
       id="ellipse865"
       style="opacity:1;fill:#000000;fill-opacity:1;stroke:none;stroke-width:3.29999995;stroke-linecap:square;stroke-miterlimit:4;stroke-dasharray:none;stroke-opacity:1" />
  </g>
  <g
     inkscape:label="Layer 1"
     inkscape:groupmode="layer"
     id="layer1"
     transform="translate(-61.094132,-39.697672)">
    <ellipse
       style="opacity:1;fill:#ffffff;fill-opacity:1;stroke:#ffffff;stroke-width:3;stroke-linecap:square;stroke-miterlimit:4;stroke-dasharray:none;stroke-opacity:1"
       id="path968"
       cx="102.23946"
       cy="81.322853"
       rx="36.985458"
       ry="36.986694" />
    <path
       inkscape:connector-curvature="0"
       style="fill:#000000;fill-opacity:1;stroke:#000000;stroke-width:0.26499999;stroke-linecap:butt;stroke-linejoin:miter;stroke-miterlimit:4;stroke-dasharray:none;stroke-opacity:1"
       d="m 102.0904,60.09737 v 0.0025 c -10.849315,0.05564 -29.468549,3.331355 -28.580884,14.747572 0.998129,12.836894 7.664143,10.700124 14.768802,14.2033 7.104658,3.503173 -8.511717,19.990608 13.954652,19.990688 22.46637,-8e-5 6.8506,-16.487515 13.95526,-19.990688 7.10466,-3.503176 13.77067,-1.366406 14.7688,-14.2033 0.88767,-11.416232 -17.73157,-14.69195 -28.58089,-14.747587 v -0.0025 c -0.0465,0 -0.0958,0.0012 -0.14256,0.0012 -0.047,-1.21e-4 -0.0965,-0.0012 -0.14318,-0.0012 z"
       id="path815" />
    <path
       style="fill:#ffb9ff;fill-opacity:1;stroke:#000000;stroke-width:0.26458329px;stroke-linecap:butt;stroke-linejoin:miter;stroke-opacity:1"
       d="m 65.313217,82.902804 c 25.846745,20.747506 55.929173,21.968436 55.929173,21.968436 0,0 -22.926589,-19.600517 -55.929173,-21.968436 z"
       id="path958"
       inkscape:connector-curvature="0" />
    <path
       style="fill:#ffffff;fill-opacity:1;stroke:#000000;stroke-width:0.26458329px;stroke-linecap:butt;stroke-linejoin:miter;stroke-opacity:1"
       d="m 121.24239,104.87124 c 8.87082,-4.18264 14.11313,-3.13426 24.77646,9.3317 -15.5819,-6.31579 -16.95521,6.75865 -24.77646,-9.3317 z"
       id="path840"
       inkscape:connector-curvature="0"
       sodipodi:nodetypes="ccc" />
    <rect
       style="opacity:1;fill:#000000;fill-opacity:1;stroke:none;stroke-width:0.17638929;stroke-miterlimit:4;stroke-dasharray:none;stroke-opacity:1"
       id="rect844"
       width="4.2994237"
       height="10.622687"
       x="-55.490231"
       y="142.94727"
       transform="matrix(0.36280836,-0.93186377,0.93077268,0.36559845,0,0)" />
    <path
       inkscape:connector-curvature="0"
       style="fill:#000000;fill-opacity:1;stroke:#ffffff;stroke-width:0.26458332px;stroke-linecap:butt;stroke-linejoin:miter;stroke-opacity:1"
       d="m 97.53066,83.331851 c -5.723509,-0.0022 -13.433518,1.291957 -13.433518,11.681558 0,13.852821 18.135828,1.998693 18.135828,1.998703 0,-1e-5 18.13583,11.854118 18.13583,-1.998703 0,-10.389601 -7.71002,-11.683789 -13.43352,-11.681558 -1.90784,6.21e-4 -3.59504,0.146231 -4.70231,0.146231 -1.10728,0 -2.794475,-0.14547 -4.70231,-0.146231 z"
       id="path823" />
    <path
       style="fill:#00ff7f;fill-opacity:1;stroke:#000000;stroke-width:0.26458332px;stroke-linecap:butt;stroke-linejoin:miter;stroke-opacity:1"
       d="M 97.263377,73.472995 81.954475,71.364898 c 0,0 6.281449,19.845191 15.308902,2.108097 z"
       id="path852"
       inkscape:connector-curvature="0"
       sodipodi:nodetypes="ccc" />
    <path
       sodipodi:nodetypes="ccc"
       inkscape:connector-curvature="0"
       id="path857"
       d="m 107.20308,73.472996 15.3089,-2.108097 c 0,0 -6.28144,19.84519 -15.3089,2.108097 z"
       style="fill:#00d7ff;fill-opacity:1;stroke:#000000;stroke-width:0.26458332px;stroke-linecap:butt;stroke-linejoin:miter;stroke-opacity:1" />
    <path
       inkscape:connector-curvature="0"
       style="fill:#404040;fill-opacity:1;stroke:#000000;stroke-width:0.26458332px;stroke-linecap:butt;stroke-linejoin:miter;stroke-opacity:1"
       d="m 102.23297,66.689938 c 0,0 -8.409638,14.904219 -8.050526,16.984737 0.359109,2.08052 6.686536,6.825571 8.050526,6.825571 1.36399,0 7.69201,-4.745051 8.05113,-6.825571 0.35911,-2.080518 -8.05113,-16.984737 -8.05113,-16.984737 z"
       id="path828" />
    <path
       style="fill:#000000;fill-opacity:1;stroke:#000000;stroke-width:0.26458332px;stroke-linecap:butt;stroke-linejoin:miter;stroke-opacity:1"
       d="m 89.300235,61.488741 c 0.830368,-9.079064 -6.389682,-8.019395 -11.08588,-5.170515 -4.696198,2.848879 -5.053062,7.410336 -0.591088,10.011466 z"
       id="path866"
       inkscape:connector-curvature="0"
       sodipodi:nodetypes="czcc" />
    <path
       sodipodi:nodetypes="czcc"
       inkscape:connector-curvature="0"
       id="path868"
       d="m 115.16631,61.488741 c -0.83037,-9.079064 6.38968,-8.019395 11.08587,-5.170515 4.6962,2.848879 5.05306,7.410336 0.59109,10.011466 z"
       style="fill:#000000;fill-opacity:1;stroke:#000000;stroke-width:0.26458332px;stroke-linecap:butt;stroke-linejoin:miter;stroke-opacity:1" />
    <path
       style="fill:#000000;fill-opacity:1;stroke:#000000;stroke-width:0.26458332px;stroke-linecap:butt;stroke-linejoin:miter;stroke-opacity:1"
       d="m 89.64559,80.841645 c 0,0 -2.329617,-5.865745 0,-11.635272 2.207742,6.021076 0,11.635272 0,11.635272 z"
       id="path933"
       inkscape:connector-curvature="0"
       sodipodi:nodetypes="ccc" />
    <path
       sodipodi:nodetypes="ccc"
       inkscape:connector-curvature="0"
       id="path935"
       d="m 114.49485,80.841645 c 0,0 -2.32961,-5.865745 0,-11.635272 2.20774,6.021076 0,11.635272 0,11.635272 z"
       style="fill:none;stroke:#000000;stroke-width:0.26458332px;stroke-linecap:butt;stroke-linejoin:miter;stroke-opacity:1" />
    <path
       style="fill:#000000;fill-opacity:1;stroke:#000000;stroke-width:0.26458332px;stroke-linecap:butt;stroke-linejoin:miter;stroke-opacity:1"
       d="m 114.49485,80.841645 c 0,0 -2.32961,-5.865745 0,-11.635272 2.20774,6.021076 0,11.635272 0,11.635272 z"
       id="path937"
       inkscape:connector-curvature="0"
       sodipodi:nodetypes="ccc" />
    <g
       id="g948"
       transform="matrix(1.7570284,0,0,1.1741739,-69.365074,-27.533131)"
       style="stroke-width:0.55262196;stroke-miterlimit:4;stroke-dasharray:none">
      <path
         sodipodi:nodetypes="cc"
         inkscape:connector-curvature="0"
         id="path939"
         d="M 91.376984,100.77406 C 83.832872,98.455445 71.590236,100.61074 71.590236,100.61074"
         style="fill:none;stroke:#000000;stroke-width:0.55262196;stroke-linecap:butt;stroke-linejoin:miter;stroke-miterlimit:4;stroke-dasharray:none;stroke-opacity:1" />
      <path
         sodipodi:nodetypes="cc"
         inkscape:connector-curvature="0"
         id="path941"
         d="m 91.112597,102.18887 c -8.018675,-0.58966 -16.645224,1.93843 -16.645224,1.93843"
         style="fill:none;stroke:#000000;stroke-width:0.55262196;stroke-linecap:butt;stroke-linejoin:miter;stroke-miterlimit:4;stroke-dasharray:none;stroke-opacity:1" />
      <path
         sodipodi:nodetypes="cc"
         inkscape:connector-curvature="0"
         id="path943"
         d="m 91.057275,103.97093 c -6.394812,0.042 -12.820069,2.6785 -12.820069,2.6785"
         style="fill:none;stroke:#000000;stroke-width:0.55262196;stroke-linecap:butt;stroke-linejoin:miter;stroke-miterlimit:4;stroke-dasharray:none;stroke-opacity:1" />
    </g>
    <g
       id="g956"
       transform="matrix(-1.7570284,0,0,1.1741739,273.95732,-27.533131)"
       style="stroke-width:0.55262196;stroke-miterlimit:4;stroke-dasharray:none">
      <path
         style="fill:none;stroke:#000000;stroke-width:0.55262196;stroke-linecap:butt;stroke-linejoin:miter;stroke-miterlimit:4;stroke-dasharray:none;stroke-opacity:1"
         d="M 91.376984,100.77406 C 83.832872,98.455445 71.590236,100.61074 71.590236,100.61074"
         id="path950"
         inkscape:connector-curvature="0"
         sodipodi:nodetypes="cc" />
      <path
         style="fill:none;stroke:#000000;stroke-width:0.55262196;stroke-linecap:butt;stroke-linejoin:miter;stroke-miterlimit:4;stroke-dasharray:none;stroke-opacity:1"
         d="m 91.112597,102.18887 c -8.018675,-0.58966 -16.645224,1.93843 -16.645224,1.93843"
         id="path952"
         inkscape:connector-curvature="0"
         sodipodi:nodetypes="cc" />
      <path
         style="fill:none;stroke:#000000;stroke-width:0.55262196;stroke-linecap:butt;stroke-linejoin:miter;stroke-miterlimit:4;stroke-dasharray:none;stroke-opacity:1"
         d="m 91.057275,103.97093 c -6.394812,0.042 -12.820069,2.6785 -12.820069,2.6785"
         id="path954"
         inkscape:connector-curvature="0"
         sodipodi:nodetypes="cc" />
    </g>
    <path
       sodipodi:nodetypes="czcc"
       inkscape:connector-curvature="0"
       id="path851"
       d="m 86.652327,62.586491 c 0.448411,-4.895447 -3.45053,-4.324071 -5.986549,-2.78795 -2.536021,1.53612 -2.728733,3.995667 -0.319197,5.398201 z"
       style="fill:none;stroke:#000000;stroke-width:0.26458332px;stroke-linecap:butt;stroke-linejoin:miter;stroke-opacity:1" />
    <path
       style="fill:#7f7f7f;fill-opacity:1;stroke:#000000;stroke-width:0.26458332px;stroke-linecap:butt;stroke-linejoin:miter;stroke-opacity:1"
       d="m 97.530661,83.331851 c -1.069552,-4.16e-4 -2.208661,0.04465 -3.353676,0.185671 -1.03e-4,0.05533 -0.0021,0.113073 0.0055,0.157154 0.35911,2.080519 6.686535,6.825566 8.050525,6.825566 1.36399,0 7.69202,-4.745047 8.05114,-6.825566 0.007,-0.04408 0.006,-0.101825 0.006,-0.157154 -1.14522,-0.141077 -2.28456,-0.186087 -3.35429,-0.185671 -1.90783,7.62e-4 -3.59503,0.146231 -4.70231,0.146231 -1.10727,0 -2.794472,-0.145469 -4.702307,-0.146231 z"
       id="path867"
       inkscape:connector-curvature="0" />
    <path
       style="fill:#00d7ff;fill-opacity:1;stroke:#000000;stroke-width:0.26458332px;stroke-linecap:butt;stroke-linejoin:miter;stroke-opacity:1"
       d="m 128.39679,104.67563 c -2.54216,-0.23131 3.53709,3.02424 2.54473,4.50458 -0.99236,1.48033 -0.59495,-0.46415 -3.93453,0.34413 -0.67775,0.16404 -1.47663,0.59207 -2.31627,1.15833 5.21671,6.47667 8.32673,-1.74936 21.32813,3.52048 -2.69141,-3.14639 -5.03676,-5.56352 -7.18298,-7.35467 -5.32346,4.42947 -7.59837,-1.67738 -10.43908,-2.17285 z"
       id="path882"
       inkscape:connector-curvature="0"
       sodipodi:nodetypes="csccccc" />
  </g>
</svg>
