<?xml version="1.0" encoding="UTF-8" standalone="no"?>
<!-- Created with Inkscape (http://www.inkscape.org/) -->

<svg
   xmlns:dc="http://purl.org/dc/elements/1.1/"
   xmlns:cc="http://creativecommons.org/ns#"
   xmlns:rdf="http://www.w3.org/1999/02/22-rdf-syntax-ns#"
   xmlns:svg="http://www.w3.org/2000/svg"
   xmlns="http://www.w3.org/2000/svg"
   xmlns:sodipodi="http://sodipodi.sourceforge.net/DTD/sodipodi-0.dtd"
   xmlns:inkscape="http://www.inkscape.org/namespaces/inkscape"
   width="82.403999mm"
   height="82.403999mm"
   viewBox="0 0 82.403999 82.403999"
   version="1.1"
   id="svg8"
   inkscape:version="0.92.3 (2405546, 2018-03-11)"
   sodipodi:docname="icon-draft.svg"
   inkscape:export-filename="/home/saalfeld/workspace/paintera/img/logo-2-256.png"
   inkscape:export-xdpi="78.910004"
   inkscape:export-ydpi="78.910004">
  <defs
     id="defs2" />
  <sodipodi:namedview
     id="base"
     pagecolor="#ff00ff"
     bordercolor="#666666"
     borderopacity="1.0"
     inkscape:pageopacity="0"
     inkscape:pageshadow="2"
     inkscape:zoom="0.9899495"
     inkscape:cx="-52.360989"
     inkscape:cy="362.79135"
     inkscape:document-units="mm"
     inkscape:current-layer="layer1"
     showgrid="false"
     showguides="true"
     inkscape:guide-bbox="true"
     inkscape:snap-bbox="true"
     inkscape:object-paths="true"
     inkscape:snap-intersection-paths="true"
     inkscape:object-nodes="true"
     inkscape:snap-smooth-nodes="true"
     inkscape:snap-global="false"
     inkscape:window-width="3706"
     inkscape:window-height="2049"
     inkscape:window-x="134"
     inkscape:window-y="55"
     inkscape:window-maximized="1"
     fit-margin-top="0"
     fit-margin-left="0"
     fit-margin-right="0"
     fit-margin-bottom="0">
    <sodipodi:guide
       position="41.148428,36.390362"
       orientation="1,0"
       id="guide821"
       inkscape:locked="false" />
  </sodipodi:namedview>
  <metadata
     id="metadata5">
    <rdf:RDF>
      <cc:Work
         rdf:about="">
        <dc:format>image/svg+xml</dc:format>
        <dc:type
           rdf:resource="http://purl.org/dc/dcmitype/StillImage" />
        <dc:title></dc:title>
      </cc:Work>
    </rdf:RDF>
  </metadata>
  <g
     inkscape:label="Layer 1"
     inkscape:groupmode="layer"
     id="layer1"
     transform="translate(-61.094132,-39.697672)">
    <ellipse
       style="opacity:1;fill:#ffffff;fill-opacity:1;stroke:#ffffff;stroke-width:3;stroke-linecap:square;stroke-miterlimit:4;stroke-dasharray:none;stroke-opacity:1"
       id="path968"
       cx="102.23946"
       cy="81.322853"
       rx="36.985458"
       ry="36.986694" />
    <g
       id="g911"
       transform="matrix(1.1739804,0,0,1.1741739,-17.797529,-27.533131)"
       style="stroke-width:0.85173279">
      <path
         id="path815"
         transform="scale(0.26458333)"
         d="m 385.96875,282.07227 v 0.008 c -34.92843,0.17909 -94.87143,10.72324 -92.01367,47.4707 3.21339,41.32045 24.67404,34.44244 47.54687,45.71875 22.87283,11.2763 -27.40273,64.3474 44.92578,64.34766 72.32852,-2.7e-4 22.05491,-53.07136 44.92774,-64.34766 22.87283,-11.27631 44.33348,-4.3983 47.54687,-45.71875 2.85777,-36.74746 -57.08524,-47.29161 -92.01367,-47.4707 v -0.008 c -0.14957,0 -0.30845,0.004 -0.45898,0.004 -0.15118,-3.9e-4 -0.31074,-0.004 -0.46094,-0.004 z"
         style="fill:#000000;fill-opacity:1;stroke:#000000;stroke-width:0.85307407;stroke-linecap:butt;stroke-linejoin:miter;stroke-miterlimit:4;stroke-dasharray:none;stroke-opacity:1"
         inkscape:connector-curvature="0" />
      <path
         inkscape:connector-curvature="0"
         id="path958"
         d="m 70.793981,94.054156 c 22.016334,17.669874 47.640639,18.709694 47.640639,18.709694 0,0 -19.52894,-16.693026 -47.640639,-18.709694 z"
         style="fill:#007fff;fill-opacity:1;stroke:#000000;stroke-width:0.22535425px;stroke-linecap:butt;stroke-linejoin:miter;stroke-opacity:1" />
      <path
         sodipodi:nodetypes="ccc"
         inkscape:connector-curvature="0"
         id="path840"
         d="m 118.43462,112.76385 c 7.55619,-3.5622 12.0216,-2.66933 21.10466,7.94746 -13.27271,-5.37892 -14.4425,5.75609 -21.10466,-7.94746 z"
         style="fill:#007fff;fill-opacity:1;stroke:#000000;stroke-width:0.22535425px;stroke-linecap:butt;stroke-linejoin:miter;stroke-opacity:1" />
      <rect
         transform="matrix(0.36286029,-0.93184356,0.93079318,0.36554624,0,0)"
         y="144.39575"
         x="-63.544479"
         height="9.0482378"
         width="3.6617377"
         id="rect844"
         style="opacity:1;fill:#000000;fill-opacity:1;stroke:none;stroke-width:0.15023652;stroke-miterlimit:4;stroke-dasharray:none;stroke-opacity:1" />
      <path
         transform="scale(0.26458333)"
         id="path823"
         d="m 371.28906,356.86133 c -18.42634,-0.007 -43.24804,4.15866 -43.24804,37.60156 0,44.5906 58.38671,6.43356 58.38671,6.43359 0,-3e-5 58.38672,38.15701 58.38672,-6.43359 0,-33.4429 -24.82171,-37.60874 -43.24804,-37.60156 -6.14211,0.002 -11.5739,0.4707 -15.13868,0.4707 -3.56477,0 -8.99656,-0.46825 -15.13867,-0.4707 z"
         style="fill:#000000;fill-opacity:1;stroke:#ffffff;stroke-width:0.85173273px;stroke-linecap:butt;stroke-linejoin:miter;stroke-opacity:1"
         inkscape:connector-curvature="0" />
      <path
         sodipodi:nodetypes="ccc"
         inkscape:connector-curvature="0"
         id="path852"
         d="M 98.009222,86.02314 84.969054,84.227753 c 0,0 5.350557,16.901407 13.040168,1.795387 z"
         style="fill:#00ff7f;fill-opacity:1;stroke:#000000;stroke-width:0.22535428px;stroke-linecap:butt;stroke-linejoin:miter;stroke-opacity:1" />
      <path
         style="fill:#007fff;fill-opacity:1;stroke:#000000;stroke-width:0.22535428px;stroke-linecap:butt;stroke-linejoin:miter;stroke-opacity:1"
         d="m 106.47589,86.023141 13.04017,-1.795387 c 0,0 -5.35055,16.901406 -13.04017,1.795387 z"
         id="path857"
         inkscape:connector-curvature="0"
         sodipodi:nodetypes="ccc" />
      <path
         id="path828"
         transform="scale(0.26458333)"
         d="m 386.42773,303.29297 c 0,0 -27.07409,47.97493 -25.91796,54.67187 1.15612,6.69695 21.52672,21.97071 25.91796,21.97071 4.39125,0 24.76377,-15.27376 25.91993,-21.97071 1.15612,-6.69694 -25.91993,-54.67187 -25.91993,-54.67187 z"
         style="fill:#404040;fill-opacity:1;stroke:#000000;stroke-width:0.85173273px;stroke-linecap:butt;stroke-linejoin:miter;stroke-opacity:1"
         inkscape:connector-curvature="0" />
      <path
         sodipodi:nodetypes="czcc"
         inkscape:connector-curvature="0"
         id="path866"
         d="m 91.226194,75.816599 c 0.70731,-7.732299 -5.44275,-6.829819 -9.442985,-4.403534 -4.000236,2.426284 -4.304214,6.311106 -0.503491,8.526391 z"
         style="fill:#000000;fill-opacity:1;stroke:#000000;stroke-width:0.22535428px;stroke-linecap:butt;stroke-linejoin:miter;stroke-opacity:1" />
      <path
         style="fill:#000000;fill-opacity:1;stroke:#000000;stroke-width:0.22535428px;stroke-linecap:butt;stroke-linejoin:miter;stroke-opacity:1"
         d="m 113.25899,75.816599 c -0.70731,-7.732299 5.44275,-6.829819 9.44298,-4.403534 4.00024,2.426284 4.30421,6.311106 0.50349,8.526391 z"
         id="path868"
         inkscape:connector-curvature="0"
         sodipodi:nodetypes="czcc" />
      <path
         sodipodi:nodetypes="ccc"
         inkscape:connector-curvature="0"
         id="path933"
         d="m 91.520369,92.298744 c 0,0 -1.984375,-4.995636 0,-9.909326 1.880561,5.127925 0,9.909326 0,9.909326 z"
         style="fill:#000000;fill-opacity:1;stroke:#000000;stroke-width:0.22535428px;stroke-linecap:butt;stroke-linejoin:miter;stroke-opacity:1" />
      <path
         style="fill:none;stroke:#000000;stroke-width:0.22535428px;stroke-linecap:butt;stroke-linejoin:miter;stroke-opacity:1"
         d="m 112.68704,92.298744 c 0,0 -1.98437,-4.995636 0,-9.909326 1.88056,5.127925 0,9.909326 0,9.909326 z"
         id="path935"
         inkscape:connector-curvature="0"
         sodipodi:nodetypes="ccc" />
      <path
         sodipodi:nodetypes="ccc"
         inkscape:connector-curvature="0"
         id="path937"
         d="m 112.68704,92.298744 c 0,0 -1.98437,-4.995636 0,-9.909326 1.88056,5.127925 0,9.909326 0,9.909326 z"
         style="fill:#000000;fill-opacity:1;stroke:#000000;stroke-width:0.22535428px;stroke-linecap:butt;stroke-linejoin:miter;stroke-opacity:1" />
      <g
         style="stroke-width:0.55262196;stroke-miterlimit:4;stroke-dasharray:none"
         transform="matrix(1.496642,0,0,1,-43.925388,0)"
         id="g948">
        <path
           style="fill:none;stroke:#000000;stroke-width:0.55262196;stroke-linecap:butt;stroke-linejoin:miter;stroke-miterlimit:4;stroke-dasharray:none;stroke-opacity:1"
           d="M 91.376984,100.77406 C 83.832872,98.455445 71.590236,100.61074 71.590236,100.61074"
           id="path939"
           inkscape:connector-curvature="0"
           sodipodi:nodetypes="cc" />
        <path
           style="fill:none;stroke:#000000;stroke-width:0.55262196;stroke-linecap:butt;stroke-linejoin:miter;stroke-miterlimit:4;stroke-dasharray:none;stroke-opacity:1"
           d="m 91.112597,102.18887 c -8.018675,-0.58966 -16.645224,1.93843 -16.645224,1.93843"
           id="path941"
           inkscape:connector-curvature="0"
           sodipodi:nodetypes="cc" />
        <path
           style="fill:none;stroke:#000000;stroke-width:0.55262196;stroke-linecap:butt;stroke-linejoin:miter;stroke-miterlimit:4;stroke-dasharray:none;stroke-opacity:1"
           d="m 91.057275,103.97093 c -6.394812,0.042 -12.820069,2.6785 -12.820069,2.6785"
           id="path943"
           inkscape:connector-curvature="0"
           sodipodi:nodetypes="cc" />
      </g>
      <g
         style="stroke-width:0.55262196;stroke-miterlimit:4;stroke-dasharray:none"
         transform="matrix(-1.496642,0,0,1,248.51765,0)"
         id="g956">
        <path
           sodipodi:nodetypes="cc"
           inkscape:connector-curvature="0"
           id="path950"
           d="M 91.376984,100.77406 C 83.832872,98.455445 71.590236,100.61074 71.590236,100.61074"
           style="fill:none;stroke:#000000;stroke-width:0.55262196;stroke-linecap:butt;stroke-linejoin:miter;stroke-miterlimit:4;stroke-dasharray:none;stroke-opacity:1" />
        <path
           sodipodi:nodetypes="cc"
           inkscape:connector-curvature="0"
           id="path952"
           d="m 91.112597,102.18887 c -8.018675,-0.58966 -16.645224,1.93843 -16.645224,1.93843"
           style="fill:none;stroke:#000000;stroke-width:0.55262196;stroke-linecap:butt;stroke-linejoin:miter;stroke-miterlimit:4;stroke-dasharray:none;stroke-opacity:1" />
        <path
           sodipodi:nodetypes="cc"
           inkscape:connector-curvature="0"
           id="path954"
           d="m 91.057275,103.97093 c -6.394812,0.042 -12.820069,2.6785 -12.820069,2.6785"
           style="fill:none;stroke:#000000;stroke-width:0.55262196;stroke-linecap:butt;stroke-linejoin:miter;stroke-miterlimit:4;stroke-dasharray:none;stroke-opacity:1" />
      </g>
      <path
         style="fill:none;stroke:#000000;stroke-width:0.22535428px;stroke-linecap:butt;stroke-linejoin:miter;stroke-opacity:1"
         d="m 88.970698,76.751512 c 0.381958,-4.169269 -2.939171,-3.68265 -5.09936,-2.374393 -2.16019,1.308256 -2.324343,3.40296 -0.271893,4.597446 z"
         id="path851"
         inkscape:connector-curvature="0"
         sodipodi:nodetypes="czcc" />
      <path
         inkscape:connector-curvature="0"
         id="path867"
         d="m 98.236896,94.419559 c -0.911048,-3.54e-4 -1.881344,0.03803 -2.856672,0.158129 -8.7e-5,0.04712 -0.0018,0.0963 0.0047,0.133842 0.305891,1.771901 5.695616,5.81308 6.857466,5.81308 1.16185,0 6.55208,-4.041179 6.85798,-5.81308 0.006,-0.03754 0.005,-0.08672 0.005,-0.133842 -0.9755,-0.12015 -1.94599,-0.158483 -2.85719,-0.158129 -1.6251,6.49e-4 -3.06226,0.12454 -4.00544,0.12454 -0.94318,0 -2.380345,-0.123891 -4.005445,-0.12454 z"
         style="fill:#7f7f7f;fill-opacity:1;stroke:#000000;stroke-width:0.22535428px;stroke-linecap:butt;stroke-linejoin:miter;stroke-opacity:1" />
      <path
         sodipodi:nodetypes="csccccc"
         inkscape:connector-curvature="0"
         id="path882"
         transform="scale(0.26458333)"
         d="m 470.65987,425.56445 c -8.18426,-0.74458 11.38736,9.73468 8.19253,14.49972 -3.1948,4.765 -1.91538,-1.49405 -12.66685,1.10771 -2.18196,0.52802 -4.7539,1.90581 -7.45703,3.72851 16.79472,20.84765 26.80717,-5.63096 68.66406,11.33203 -8.66477,-10.12787 -16.21541,-17.90832 -23.125,-23.67383 -17.13842,14.25795 -24.46229,-5.3993 -33.60771,-6.99414 z"
         style="fill:#00ff7f;fill-opacity:1;stroke:#000000;stroke-width:0.85173273px;stroke-linecap:butt;stroke-linejoin:miter;stroke-opacity:1" />
    </g>
  </g>
</svg>
